# Blender 5.1.1
# www.blender.org
mtllib moai.mtl
o 12329_Statue_v1_l3
v 0.063499 0.093474 0.028391
v 0.073869 0.032167 0.039776
v 0.053489 0.038615 0.049954
v 0.011386 0.089312 0.038027
v 0.005537 0.123003 0.027043
v 0.007575 0.060446 0.058623
v 0.071836 -0.044781 0.001963
v -0.001903 0.100948 0.045302
v 0.016403 0.023895 0.104755
v 0.021190 0.036771 0.066977
v 0.034379 0.017291 0.079426
v 0.028017 0.030308 0.061396
v 0.030465 0.004206 0.071599
v 0.067851 -0.063986 0.055172
v 0.005834 -0.004084 0.098683
v 0.042524 -0.017962 0.078552
v 0.029841 -0.075427 0.093121
v 0.055449 -0.071140 0.072130
v 0.032183 -0.079521 0.065886
v 0.056215 -0.116076 0.022662
v 0.030028 -0.115895 0.054087
v 0.051599 -0.075273 0.046278
v 0.073618 0.119716 -0.010747
v 0.083813 -0.007059 -0.012787
v 0.082529 0.016182 -0.019896
v 0.079967 0.114643 -0.020487
v 0.082553 0.114386 -0.011670
v 0.063036 0.130681 0.000249
v 0.029287 -0.030183 0.086820
v 0.020807 0.074078 0.027361
v 0.047817 -0.032194 -0.021746
v 0.052054 0.135218 -0.018390
v 0.048288 -0.008234 -0.023244
v 0.015371 -0.013031 -0.028958
v 0.026813 -0.061951 -0.043802
v 0.001874 0.143353 -0.016976
v 0.066189 -0.115585 -0.014980
v 0.017923 -0.115792 -0.052872
v 0.074279 -0.016103 -0.009289
v 0.072998 0.070512 0.007036
v 0.075674 -0.003434 0.011683
v 0.083020 -0.000748 0.008133
v 0.037420 0.134545 0.014168
v -0.000728 -0.076552 0.100025
v 0.049452 0.075234 0.021698
v -0.010572 -0.054674 -0.046349
v -0.000246 -0.010671 0.097302
v 0.029539 -0.012184 0.090037
v 0.064323 -0.058028 -0.001373
v 0.001658 -0.115776 0.061564
v 0.025630 0.013348 0.088662
v 0.010363 0.007167 0.089351
v 0.010707 0.014451 0.102838
v 0.014094 0.016722 0.092259
v -0.074017 0.082175 -0.002486
v -0.063969 0.093628 0.027826
v -0.053822 0.035886 0.050876
v -0.022068 0.036180 0.060219
v -0.073368 0.118952 -0.009831
v -0.060910 0.132539 0.001170
v -0.010738 0.057066 0.058795
v -0.075913 -0.006461 0.012339
v -0.079996 0.113819 -0.020446
v -0.064929 -0.066521 0.058949
v -0.065579 -0.058325 0.001574
v -0.021492 0.135633 0.017662
v -0.032451 0.004074 0.070287
v -0.000203 0.027971 0.109670
v -0.020309 0.075089 0.028043
v -0.015754 0.014503 0.088956
v -0.023295 -0.009988 0.093124
v -0.002028 -0.035799 0.093196
v -0.033864 -0.075114 0.091525
v -0.052361 -0.006072 0.065001
v -0.070237 0.071661 0.011979
v -0.051292 -0.034717 -0.018353
v -0.034052 -0.025222 -0.028059
v -0.051877 0.135427 -0.018524
v -0.035934 -0.062424 -0.037459
v -0.021614 -0.115818 -0.051059
v -0.062073 -0.115179 0.017366
v -0.029402 0.031689 0.069897
v -0.029189 0.013270 0.086749
v -0.073679 0.033438 0.039667
v -0.048974 -0.076926 0.049948
v -0.057172 -0.072319 0.029355
v -0.083550 -0.002960 0.007835
v -0.073455 -0.015833 -0.010891
v -0.082443 0.115071 -0.011715
v -0.083078 -0.002003 -0.018197
v -0.011405 0.088830 0.037913
v -0.016078 0.024033 0.104720
v -0.012930 -0.080801 0.074337
v -0.037410 -0.018839 0.082259
v -0.065351 -0.114930 -0.015932
v -0.051058 -0.006326 -0.023290
v -0.030001 -0.115872 0.053982
v -0.056397 -0.115379 -0.025281
v -0.008689 0.005216 0.086861
v -0.009061 0.015256 0.104329
vn 0.3573 0.0214 0.9338
vn 0.8413 0.2526 0.4780
vn 0.9181 0.0998 0.3835
vn 0.1921 -0.0542 -0.9799
vn 0.6836 -0.0525 -0.7279
vn 0.7894 -0.4521 -0.4152
vn 0.8744 -0.4074 0.2636
vn 0.7487 -0.4674 -0.4700
vn 0.9227 -0.1941 0.3331
vn 0.3515 0.6734 0.6504
vn 0.5743 0.1666 0.8015
vn 0.7577 0.5599 0.3351
vn 0.1529 0.3468 0.9254
vn 0.6118 0.2258 0.7581
vn -0.4005 -0.0720 0.9135
vn 0.3187 -0.8288 0.4600
vn 0.2777 -0.6522 0.7053
vn 0.6346 0.1655 0.7549
vn 0.3860 -0.7620 0.5199
vn 0.6782 -0.5223 0.5169
vn 0.3784 -0.5510 0.7438
vn 0.4061 -0.0185 0.9136
vn -0.0382 0.0120 0.9992
vn -0.0040 -0.5534 0.8329
vn 0.6417 -0.7182 0.2692
vn 0.9046 -0.1992 -0.3769
vn 0.7640 -0.5938 0.2525
vn 0.7849 -0.2442 0.5695
vn 0.2367 0.8040 0.5454
vn 0.5872 0.7524 0.2984
vn 0.0093 0.8286 -0.5598
vn 0.3589 0.4979 0.7894
vn -0.0236 -0.1528 0.9880
vn 0.4750 0.1328 0.8699
vn 0.5122 -0.0149 -0.8587
vn -0.6043 0.3643 -0.7086
vn 0.6040 0.3947 -0.6924
vn 0.0816 0.4990 -0.8628
vn 0.2335 0.7576 -0.6095
vn 0.6184 0.5383 0.5725
vn 0.9726 0.0631 0.2236
vn -0.1409 -0.8129 0.5652
vn 0.3046 -0.1079 0.9464
vn 0.5981 0.0107 0.8014
vn -0.0432 0.1378 0.9895
vn 0.8005 0.4521 0.3936
vn 0.7254 0.6385 0.2572
vn 0.9327 -0.2635 -0.2464
vn 0.4151 0.1808 -0.8916
vn 0.0325 -0.7787 0.6266
vn -0.3637 -0.7571 0.5427
vn 0.7674 -0.5766 -0.2805
vn 0.3584 -0.7565 0.5470
vn 0.4278 -0.7048 0.5659
vn 0.3234 -0.9243 0.2026
vn -0.3556 -0.0626 0.9325
vn -0.1916 -0.0619 -0.9795
vn -0.7312 -0.2999 -0.6127
vn -0.5875 0.0002 0.8092
vn -0.7702 0.4902 0.4080
vn -0.7451 0.1413 0.6518
vn 0.0447 0.5854 0.8095
vn -0.1418 0.7838 0.6045
vn -0.5255 0.6172 0.5856
vn -0.6039 0.2046 0.7704
vn 0.0175 0.3193 0.9475
vn -0.7422 -0.4144 0.5266
vn -0.7996 0.5990 -0.0436
vn -0.3110 -0.8709 0.3805
vn -0.6226 0.3367 0.7064
vn -0.4474 0.1961 0.8725
vn -0.6197 0.2114 0.7558
vn -0.6023 0.0641 0.7957
vn -0.4407 -0.5388 0.7180
vn -0.6706 -0.6303 0.3912
vn -0.8296 -0.4361 0.3488
vn -0.7683 -0.5634 -0.3039
vn -0.7272 -0.6499 0.2208
vn -0.9225 -0.3606 0.1379
vn -0.7821 0.5354 0.3188
vn -0.8280 -0.2849 0.4829
vn -0.7248 -0.4728 -0.5012
vn -0.5307 0.1257 0.8381
vn -0.7114 0.2777 0.6456
vn -0.3717 0.4604 0.8062
vn -0.2284 0.7358 -0.6375
vn -0.5347 0.7761 0.3344
vn -0.6307 0.5906 0.5035
vn -0.5921 -0.0574 -0.8038
vn -0.2901 0.1901 -0.9379
vn -0.5314 0.1497 -0.8338
vn -0.1298 0.2527 -0.9588
vn -0.2556 -0.6234 -0.7389
vn -0.2321 -0.6325 0.7390
vn -0.8268 0.2471 0.5053
vn -0.9651 -0.1275 -0.2288
vn -0.9353 -0.2225 0.2752
vn -0.5397 -0.6548 -0.5291
vn 0.2285 -0.6094 -0.7592
vn 0.5182 0.2253 0.8250
vt 0.426079 0.461195
vt 0.468792 0.377078
vt 0.475169 0.477372
vt 0.637951 0.536104
vt 0.586493 0.582771
vt 0.568225 0.540447
vt 0.492462 0.198322
vt 0.573478 0.285993
vt 0.543870 0.322938
vt 0.151739 0.885468
vt 0.167568 0.768244
vt 0.192919 0.838810
vt 0.310313 0.284610
vt 0.373911 0.311313
vt 0.301799 0.312968
vt 0.269059 0.720840
vt 0.311018 0.722616
vt 0.310576 0.749519
vt 0.389075 0.265628
vt 0.387683 0.112419
vt 0.429357 0.165700
vt 0.361665 0.149697
vt 0.357537 0.227241
vt 0.295921 0.221961
vt 0.302612 0.142965
vt 0.478999 0.048712
vt 0.554221 0.174381
vt 0.452570 0.131997
vt 0.530739 0.547118
vt 0.533467 0.514533
vt 0.364637 0.586079
vt 0.420053 0.593830
vt 0.295249 0.645861
vt 0.421060 0.380091
vt 0.300796 0.270634
vt 0.363270 0.460904
vt 0.581791 0.514698
vt 0.637671 0.468385
vt 0.900245 0.774059
vt 0.590561 0.770824
vt 0.716105 0.507468
vt 0.757353 0.824357
vt 0.639911 0.808304
vt 0.190904 0.948682
vt 0.212387 0.841795
vt 0.219598 0.797761
vt 0.265548 0.103982
vt 0.320894 0.478300
vt 0.423860 0.509633
vt 0.292587 0.504952
vt 0.571772 0.771357
vt 0.410743 0.638264
vt 0.460363 0.595837
vt 0.462269 0.612033
vt 0.563255 0.225338
vt 0.587789 0.429531
vt 0.693089 0.409887
vt 0.448581 0.986416
vt 0.398108 0.974957
vt 0.558511 0.822064
vt 0.557695 0.909586
vt 0.517285 0.964743
vt 0.563646 0.066868
vt 0.341336 0.732909
vt 0.320444 0.735732
vt 0.354675 0.695376
vt 0.318084 0.768830
vt 0.113080 0.955804
vt 0.155044 0.955588
vt 0.852702 0.541826
vt 0.920524 0.550219
vt 0.166045 0.506374
vt 0.128612 0.587127
vt 0.098172 0.486818
vt 0.304841 0.557115
vt 0.253038 0.584421
vt 0.109146 0.879580
vt 0.102904 0.767843
vt 0.132235 0.765451
vt 0.048596 0.792010
vt 0.063252 0.824577
vt 0.249651 0.730755
vt 0.225265 0.730364
vt 0.217151 0.692758
vt 0.255248 0.270627
vt 0.185070 0.284502
vt 0.218228 0.254161
vt 0.235469 0.148347
vt 0.148679 0.127593
vt 0.139140 0.184638
vt 0.024197 0.061530
vt 0.092384 0.053485
vt 0.100876 0.136480
vt 0.208361 0.039338
vt 0.952977 0.705072
vt 0.914852 0.773302
vt 0.956536 0.547577
vt 0.907213 0.515690
vt 0.923764 0.786337
vt 0.899842 0.773816
vt 0.233649 0.460629
vt 0.126127 0.470669
vt 0.174672 0.371406
vt 0.173771 0.631818
vt 0.173129 0.593027
vt 0.080118 0.949070
vt 0.269484 0.477156
vt 0.232580 0.360130
vt 0.858876 0.472914
vt 0.816404 0.489179
vt 0.820012 0.407029
vt 0.765366 0.422470
vt 0.788839 0.305265
vt 0.848334 0.808926
vt 0.255802 0.769262
vt 0.267892 0.752437
vt 0.284444 0.777979
vt 0.126265 0.372402
vt 0.028029 0.279552
vt 0.039159 0.183405
vt 0.051370 0.308731
vt 0.068113 0.845164
vt 0.016351 0.806695
vt 0.221831 0.309094
vt 0.902674 0.318651
vt 0.906515 0.434195
vt 0.862037 0.316430
vt 0.320904 0.841132
vt 0.345588 0.810776
vt 0.404653 0.767473
vt 0.487958 0.768949
vt 0.709580 0.304654
vt 0.367249 0.356833
vt 0.360254 0.725095
vt 0.350919 0.271111
vt 0.377898 0.036051
vt 0.295215 0.033135
vt 0.515144 0.541290
vt 0.566535 0.786720
vt 0.579726 0.477416
vt 0.602861 0.326763
vt 0.953390 0.513747
vt 0.971975 0.539791
vt 0.124862 0.607263
vt 0.330084 0.898977
vt 0.253386 0.805818
s 1
usemtl 01___Default.003
f 45/1/1 2/2/2 40/3/3
f 33/4/4 25/5/5 24/6/6
f 14/7/7 39/8/8 41/9/9
f 6/10/10 9/11/11 10/12/12
f 15/13/13 13/14/14 99/15/15
f 99/16/15 52/17/16 53/18/17
f 2/2/2 16/19/18 14/7/7
f 19/20/19 18/21/20 17/22/21
f 29/23/22 72/24/23 44/25/24
f 20/26/25 49/27/26 22/28/27
f 42/29/28 39/30/8 24/6/6
f 43/31/29 28/32/30 36/33/31
f 2/2/2 3/34/32 16/19/18
f 72/24/23 29/23/22 47/35/33
f 30/36/34 3/34/32 45/1/1
f 39/37/8 31/38/35 33/4/4
f 63/39/36 26/40/37 33/4/4
f 33/4/4 31/38/35 34/41/38
f 26/40/37 36/42/31 32/43/39
f 30/44/34 10/12/12 12/45/40
f 9/11/11 11/46/41 10/12/12
f 93/47/42 19/20/19 17/22/21
f 14/7/7 22/28/27 49/27/26
f 22/28/27 14/7/7 18/21/20
f 4/48/43 1/49/44 8/50/45
f 40/3/3 1/49/44 45/1/1
f 26/40/37 27/51/46 25/5/5
f 32/52/39 23/53/47 26/54/37
f 23/53/47 1/49/44 40/3/3
f 1/49/44 28/32/30 43/31/29
f 7/55/48 14/7/7 49/27/26
f 42/29/28 24/6/6 27/51/46
f 41/9/9 40/3/3 2/2/2
f 49/56/26 35/57/49 31/38/35
f 50/58/50 97/59/51 37/60/52
f 37/60/52 20/61/25 21/62/53
f 49/27/26 20/26/25 37/63/52
f 51/64/54 54/65/55 13/66/14
f 54/65/55 53/18/17 52/17/16
f 9/67/11 53/18/17 51/64/54
f 91/68/56 6/10/10 4/69/43
f 96/70/57 90/71/58 63/39/36
f 56/72/59 59/73/60 55/74/61
f 56/72/59 5/75/62 66/76/63
f 61/77/64 92/78/65 68/79/66
f 83/80/67 92/78/65 82/81/68
f 70/82/69 83/83/67 67/84/70
f 71/85/71 15/13/13 99/15/15
f 74/86/72 94/87/73 71/85/71
f 93/47/42 73/88/74 85/89/75
f 73/88/74 72/24/23 94/87/73
f 94/87/73 64/90/76 73/88/74
f 95/91/77 81/92/78 86/93/79
f 93/47/42 85/89/75 97/94/51
f 55/95/61 89/96/80 87/97/81
f 87/97/81 90/71/58 88/98/82
f 59/99/60 63/100/36 89/96/80
f 89/96/80 90/71/58 87/97/81
f 69/101/83 75/102/84 57/103/85
f 78/104/86 60/105/87 36/33/31
f 69/106/83 61/77/64 91/68/56
f 91/107/56 8/50/45 75/102/84
f 75/102/84 69/101/83 91/107/56
f 69/101/83 57/103/85 58/108/88
f 76/109/89 88/98/82 96/70/57
f 77/110/90 79/111/91 76/109/89
f 79/111/91 46/112/92 80/113/93
f 36/42/31 63/39/36 78/114/86
f 92/115/65 100/116/94 68/117/66
f 74/86/72 84/118/95 64/90/76
f 90/71/58 96/70/57 88/98/82
f 66/76/63 60/105/87 56/72/59
f 88/119/82 65/120/96 62/121/97
f 82/81/68 58/122/88 67/123/70
f 96/70/57 33/4/4 34/41/38
f 57/103/85 74/86/72 67/124/70
f 47/35/33 15/13/13 71/85/71
f 55/74/61 62/121/97 84/118/95
f 95/125/77 65/126/96 98/127/98
f 79/111/91 98/127/98 76/109/89
f 37/60/52 97/59/51 95/128/77
f 95/128/77 98/129/98 37/60/52
f 98/129/98 80/130/93 38/131/99
f 81/92/78 97/94/51 85/89/75
f 38/132/99 80/113/93 46/112/92
f 100/116/94 92/115/65 83/83/67
f 100/116/94 83/83/67 70/82/69
f 53/18/17 100/116/94 99/16/15
f 45/1/1 3/34/32 2/2/2
f 13/14/14 3/34/32 12/133/40
f 43/31/29 36/33/31 66/76/63
f 33/4/4 26/40/37 25/5/5
f 32/52/39 28/32/30 23/53/47
f 93/47/42 17/22/21 44/25/24
f 5/75/62 1/49/44 43/31/29
f 99/16/15 13/66/14 52/17/16
f 6/10/10 68/79/66 9/11/11
f 9/67/11 68/117/66 100/116/94
f 10/12/12 30/44/34 6/10/10
f 12/45/40 10/12/12 11/46/41
f 11/134/41 51/64/54 13/66/14
f 48/135/100 13/14/14 15/13/13
f 15/13/13 47/35/33 48/135/100
f 47/35/33 29/23/22 48/135/100
f 16/19/18 48/135/100 29/23/22
f 39/8/8 14/7/7 7/55/48
f 22/28/27 18/21/20 19/20/19
f 29/23/22 44/25/24 17/22/21
f 29/23/22 17/22/21 18/21/20
f 22/28/27 19/20/19 21/136/53
f 93/47/42 50/137/50 19/20/19
f 50/137/50 21/136/53 19/20/19
f 41/138/9 42/29/28 27/51/46
f 39/30/8 42/29/28 41/138/9
f 27/51/46 26/40/37 23/139/47
f 4/48/43 45/1/1 1/49/44
f 32/52/39 36/33/31 28/32/30
f 29/23/22 18/21/20 16/19/18
f 14/7/7 16/19/18 18/21/20
f 2/2/2 14/7/7 41/9/9
f 6/10/10 30/44/34 4/69/43
f 12/133/40 3/34/32 30/36/34
f 16/19/18 3/34/32 13/14/14
f 49/56/26 31/38/35 39/37/8
f 31/38/35 35/57/49 34/41/38
f 46/112/92 34/41/38 35/57/49
f 21/136/53 20/26/25 22/28/27
f 11/134/41 9/67/11 51/64/54
f 100/116/94 53/18/17 9/67/11
f 7/140/48 49/56/26 39/37/8
f 24/6/6 39/37/8 33/4/4
f 24/6/6 25/5/5 27/51/46
f 23/53/47 40/3/3 41/9/9
f 23/53/47 28/32/30 1/49/44
f 27/51/46 23/139/47 41/138/9
f 30/36/34 45/1/1 4/48/43
f 48/135/100 16/19/18 13/14/14
f 63/39/36 33/4/4 96/70/57
f 21/62/53 50/58/50 37/60/52
f 37/141/52 38/132/99 35/57/49
f 35/57/49 38/132/99 46/112/92
f 35/57/49 49/56/26 37/141/52
f 52/17/16 13/66/14 54/65/55
f 51/64/54 53/18/17 54/65/55
f 91/107/56 4/48/43 8/50/45
f 58/108/88 57/103/85 67/124/70
f 84/118/95 75/102/84 55/74/61
f 91/68/56 61/77/64 6/10/10
f 65/120/96 86/93/79 64/90/76
f 56/72/59 60/105/87 59/73/60
f 8/50/45 5/75/62 56/72/59
f 44/25/24 73/88/74 93/47/42
f 36/33/31 60/105/87 66/76/63
f 82/81/68 92/78/65 58/122/88
f 92/78/65 61/77/64 58/122/88
f 58/122/88 61/77/64 69/106/83
f 71/85/71 99/15/15 67/124/70
f 99/16/15 100/116/94 70/82/69
f 64/90/76 62/121/97 65/120/96
f 72/24/23 47/35/33 71/85/71
f 64/90/76 94/87/73 74/86/72
f 85/89/75 73/88/74 64/90/76
f 73/88/74 44/25/24 72/24/23
f 93/47/42 97/94/51 50/137/50
f 95/91/77 86/93/79 65/120/96
f 59/99/60 89/96/80 55/95/61
f 87/97/81 88/142/82 62/143/97
f 75/102/84 8/50/45 56/72/59
f 74/86/72 57/103/85 84/118/95
f 71/85/71 94/87/73 72/24/23
f 76/109/89 65/126/96 88/98/82
f 65/126/96 76/109/89 98/127/98
f 77/110/90 46/112/92 79/111/91
f 36/42/31 26/40/37 63/39/36
f 77/110/90 96/70/57 34/41/38
f 34/41/38 46/112/92 77/110/90
f 75/102/84 56/72/59 55/74/61
f 64/90/76 86/93/79 85/89/75
f 84/118/95 62/121/97 64/90/76
f 78/104/86 63/144/36 60/105/87
f 60/105/87 63/144/36 59/73/60
f 87/97/81 62/143/97 55/95/61
f 63/100/36 90/71/58 89/96/80
f 71/85/71 67/124/70 74/86/72
f 61/77/64 68/79/66 6/10/10
f 75/102/84 84/118/95 57/103/85
f 77/110/90 76/109/89 96/70/57
f 38/131/99 37/60/52 98/129/98
f 81/145/78 95/128/77 97/59/51
f 79/111/91 80/113/93 98/127/98
f 81/92/78 85/89/75 86/93/79
f 70/82/69 67/84/70 99/16/15
f 43/31/29 66/76/63 5/75/62
f 8/50/45 1/49/44 5/75/62
f 12/45/40 11/46/41 13/146/14
f 83/80/67 82/81/68 67/123/70
