# Blender 5.1.1
# www.blender.org
mtllib skull.mtl
o 12140_Skull_v3_L2
v -0.004884 -0.004918 -0.001111
v -0.004492 -0.007921 0.002538
v -0.006789 -0.005237 -0.004711
v -0.006677 -0.005028 -0.007351
v -0.006789 0.000048 -0.003654
v -0.005719 -0.004631 -0.001717
v -0.005612 -0.002871 -0.003049
v -0.006226 0.000223 -0.003911
v -0.006706 -0.001016 -0.005568
v -0.007833 0.000623 -0.007970
v -0.007178 -0.000807 -0.007091
v -0.006731 -0.000365 -0.008504
v -0.006476 -0.000524 -0.007565
v -0.005671 -0.002835 -0.006944
v -0.000328 -0.006261 0.003553
v -0.002080 -0.005743 0.002210
v -0.003222 -0.007372 0.002258
v -0.006065 -0.007429 -0.007072
v -0.007278 -0.007147 -0.006985
v -0.005416 -0.004258 -0.005186
v -0.005585 -0.008249 -0.004261
v -0.006521 -0.008067 -0.005178
v -0.006049 -0.008875 -0.002477
v -0.000135 -0.010013 0.004535
v -0.003677 -0.009785 0.002307
v -0.006383 0.000956 -0.008055
v -0.007524 0.000720 -0.008509
v -0.004176 -0.005495 0.001809
v -0.004716 -0.009448 0.002083
v -0.001460 -0.009185 0.004975
v -0.003525 -0.007513 0.003075
v -0.004031 -0.006359 -0.002387
v 0.000759 -0.006243 0.004871
v -0.000045 -0.005289 0.004472
v -0.003315 -0.005136 -0.001420
v -0.002032 -0.005034 0.004343
v 0.004989 -0.007130 0.001269
v 0.005788 -0.004672 -0.001749
v 0.006921 0.000073 -0.004202
v 0.007027 -0.001131 -0.006680
v 0.005483 -0.003122 -0.003079
v 0.006463 -0.001040 -0.005597
v 0.006149 0.000072 -0.003430
v 0.007763 0.000630 -0.008011
v 0.006885 0.000433 -0.008685
v 0.006459 -0.000532 -0.007448
v 0.001687 -0.005911 0.002830
v 0.003105 -0.007214 0.002351
v 0.006697 -0.005067 -0.007365
v 0.005998 -0.007401 -0.007003
v 0.005343 -0.004676 -0.005635
v 0.007313 -0.007537 -0.006784
v 0.006133 -0.008368 -0.004221
v 0.005371 -0.009187 -0.002366
v 0.004012 -0.006488 -0.002197
v 0.003400 -0.009751 0.002594
v 0.005218 -0.009412 0.000761
v 0.006444 0.001031 -0.008004
v 0.003616 -0.007602 0.002973
v 0.004010 -0.008396 0.003104
v 0.003363 -0.005139 -0.001503
v 0.002858 -0.005114 0.003772
v 0.002921 -0.004821 0.001785
v 0.004930 -0.004844 -0.001359
v 0.001398 -0.009742 0.005103
v 0.000290 -0.002290 0.005276
v 0.000650 -0.002593 0.004317
v 0.000706 -0.004337 0.005270
v 0.001174 -0.002746 0.004468
v 0.001408 -0.004166 0.004828
v 0.001907 -0.002804 0.004009
v 0.002050 -0.004157 0.004334
v 0.002140 -0.002550 0.004551
v 0.001984 -0.002583 0.003286
v 0.002397 -0.004463 0.004046
v 0.002986 -0.002982 0.003125
v 0.002294 -0.002763 0.004260
v 0.002503 -0.002723 0.002200
v 0.002387 -0.003850 0.003006
v 0.003638 -0.002652 0.002607
v 0.003063 -0.003587 0.002429
v 0.003249 -0.004393 0.003061
v 0.003488 -0.002624 0.003343
v 0.002316 -0.002765 0.002929
v 0.002687 -0.002748 0.001776
v 0.004108 -0.002901 0.002132
v 0.004029 -0.004351 0.002080
v 0.003060 -0.003924 0.002021
v 0.002536 -0.002821 0.000614
v 0.003260 -0.004154 0.001171
v 0.004270 -0.002803 -0.000226
v 0.003708 -0.003987 -0.000241
v 0.004529 -0.004121 0.000815
v 0.003957 -0.003034 0.001580
v 0.002904 -0.004210 -0.000998
v 0.002706 -0.002549 -0.001602
v 0.004720 -0.003019 -0.001500
v 0.003878 -0.003904 -0.001898
v 0.004143 -0.002947 -0.000348
v 0.004147 -0.004243 -0.000660
v -0.000335 -0.002168 0.005368
v -0.000931 -0.002579 0.004411
v -0.000459 -0.004166 0.005269
v -0.001164 -0.002737 0.004394
v -0.001985 -0.002612 0.004106
v -0.002079 -0.004137 0.004340
v -0.001413 -0.004143 0.004889
v -0.002189 -0.002634 0.003082
v -0.002356 -0.004482 0.004101
v -0.003031 -0.003086 0.003324
v -0.002022 -0.002657 0.004169
v -0.002285 -0.002742 0.002893
v -0.002568 -0.002934 0.002133
v -0.002984 -0.003612 0.002598
v -0.003695 -0.002413 0.002964
v -0.003339 -0.004294 0.002892
v -0.002651 -0.003740 0.003313
v -0.003726 -0.003524 0.001304
v -0.004018 -0.002820 0.002251
v -0.003383 -0.003875 0.002377
v -0.002687 -0.002624 0.001796
v -0.002515 -0.002829 0.000609
v -0.003830 -0.003957 0.000023
v -0.004450 -0.002795 0.000138
v -0.004474 -0.004188 0.000478
v -0.004020 -0.003025 0.001599
v -0.003328 -0.004230 0.001253
v -0.003262 -0.003755 -0.000452
v -0.003438 -0.003954 -0.001722
v -0.004357 -0.003081 -0.002120
v -0.004346 -0.004334 -0.001238
v -0.004520 -0.002870 -0.000384
v -0.002784 -0.002485 -0.001235
v -0.003016 -0.003023 -0.000320
v 0.000705 -0.005829 0.004776
v 0.000312 -0.005208 0.004122
v 0.000321 -0.003754 0.005067
v 0.001775 -0.003683 0.004045
v 0.001626 -0.005689 0.004518
v 0.001661 -0.004877 0.003328
v 0.002545 -0.005280 0.003662
v 0.002555 -0.003729 0.003263
v 0.002012 -0.005387 0.002871
v 0.001852 -0.004185 0.003328
v 0.002989 -0.005192 0.001789
v 0.002835 -0.005006 0.002888
v 0.002315 -0.004038 0.001829
v 0.002971 -0.003657 0.002507
v 0.004084 -0.005010 0.000780
v 0.003302 -0.004080 0.000094
v 0.002752 -0.005152 0.000396
v 0.002492 -0.003992 0.000797
v 0.002574 -0.004177 0.001687
v 0.003572 -0.005094 0.001912
v 0.003164 -0.003642 0.001844
v 0.003563 -0.003910 0.000949
v 0.003071 -0.005478 -0.000786
v 0.002875 -0.004250 -0.000515
v 0.004154 -0.005664 0.000168
v 0.003487 -0.004131 -0.000177
v 0.004125 -0.004111 -0.001633
v 0.004448 -0.005413 -0.001268
v 0.003042 -0.004453 -0.001807
v 0.003550 -0.005553 -0.001784
v 0.001270 -0.006053 0.004689
v 0.001415 -0.003803 0.004798
v 0.000986 -0.005316 0.004176
v -0.000281 -0.005742 0.004824
v -0.000504 -0.005186 0.004099
v -0.000929 -0.003993 0.005091
v -0.000099 -0.003764 0.005037
v -0.001635 -0.005720 0.004455
v -0.001575 -0.003782 0.004308
v -0.001812 -0.004759 0.003331
v -0.002091 -0.003994 0.002741
v -0.001892 -0.005578 0.003457
v -0.002808 -0.004870 0.003729
v -0.002707 -0.003932 0.001671
v -0.002395 -0.005133 0.002146
v -0.002940 -0.004959 0.002901
v -0.002607 -0.003928 0.002854
v -0.003204 -0.005097 0.001889
v -0.004039 -0.005014 0.000729
v -0.003207 -0.004126 0.000025
v -0.003085 -0.004979 0.000089
v -0.002488 -0.003932 0.000858
v -0.002623 -0.004896 0.001451
v -0.003027 -0.003827 0.001711
v -0.003955 -0.004877 0.001844
v -0.003528 -0.003882 0.000965
v -0.004032 -0.005724 0.000180
v -0.003497 -0.004212 -0.000199
v -0.004122 -0.004162 -0.001612
v -0.004497 -0.005511 -0.001169
v -0.003640 -0.005616 -0.001820
v -0.002800 -0.004521 -0.001005
v -0.003061 -0.005550 -0.000749
v -0.001078 -0.006020 0.004695
v -0.001436 -0.003831 0.004797
v -0.001021 -0.005321 0.004091
v -0.000373 0.011700 0.002480
v -0.003515 0.008307 0.002776
v -0.005381 0.009109 0.001527
v -0.008300 0.011333 -0.002353
v -0.000647 0.014468 0.000223
v -0.005963 0.012691 -0.000276
v -0.007274 0.006566 0.001142
v -0.008026 0.004001 -0.001285
v -0.003925 0.008092 0.003022
v 0.000158 0.006006 0.003688
v -0.000940 0.005931 0.003276
v -0.002263 -0.000062 0.003876
v -0.003428 0.001220 0.002973
v -0.003118 0.001088 0.002582
v -0.009196 0.001490 -0.003272
v -0.007205 0.001519 0.000160
v -0.007187 0.004126 -0.001577
v -0.007777 0.001428 -0.003164
v -0.007451 0.008573 -0.001362
v -0.007471 0.002237 -0.000448
v -0.007587 0.004652 -0.000487
v -0.001573 0.006574 0.002988
v -0.001526 0.004268 0.002444
v -0.003311 0.007693 0.002571
v -0.007027 0.006023 0.000816
v -0.001709 0.005183 0.001446
v -0.002509 0.001912 0.001692
v -0.004246 0.001953 0.002873
v -0.001344 -0.000470 0.004202
v -0.007965 0.002402 -0.005047
v -0.009343 0.006809 -0.006237
v -0.006745 0.004327 -0.002197
v -0.006205 0.001250 -0.000763
v -0.006021 0.005329 -0.001876
v -0.003465 0.004935 -0.001932
v -0.001759 0.004777 -0.000843
v -0.002261 0.002738 -0.000485
v -0.003974 0.000778 0.000180
v -0.003432 0.003466 -0.002172
v -0.005173 0.001880 -0.001770
v -0.002882 0.016596 -0.003228
v -0.006447 0.000704 0.001125
v -0.004385 -0.001589 -0.000142
v -0.006673 -0.000974 0.000308
v -0.005107 -0.000957 -0.000437
v -0.008930 -0.000535 -0.001571
v -0.009514 0.000964 -0.005219
v -0.009180 0.000393 -0.007326
v 0.000352 0.017535 -0.006003
v -0.007325 0.014802 -0.005506
v -0.004621 0.016954 -0.008325
v -0.007998 0.014184 -0.011957
v -0.009629 0.001515 -0.009467
v -0.001702 0.017230 -0.013545
v -0.006898 0.014234 -0.016353
v -0.001614 0.014647 -0.019881
v -0.005430 0.012234 -0.020653
v -0.006536 0.008216 -0.022078
v -0.003419 0.006348 -0.023888
v 0.003898 0.006675 -0.023796
v -0.007027 0.001830 -0.022219
v -0.008643 0.011567 -0.017718
v -0.009980 0.010477 -0.010752
v -0.008924 0.006983 -0.019657
v -0.008895 -0.000534 -0.016894
v -0.009405 0.001896 -0.015180
v -0.005015 -0.000919 -0.021693
v -0.006338 -0.002459 -0.019454
v -0.000039 -0.000921 -0.022506
v -0.009050 0.000438 -0.013552
v -0.000951 -0.003150 -0.018867
v -0.006187 -0.002964 -0.015781
v -0.002955 -0.002847 0.003962
v -0.004821 -0.002999 -0.000205
v -0.003793 -0.002642 0.002674
v -0.003639 -0.003604 -0.001106
v -0.001078 -0.002425 0.005216
v -0.001076 -0.002810 0.004421
v -0.004342 -0.003188 -0.002247
v -0.006568 -0.001369 -0.001560
v -0.007003 0.000719 -0.004201
v -0.004952 -0.000432 -0.002939
v -0.003993 -0.002009 -0.002532
v -0.002804 -0.002677 -0.002077
v -0.002191 -0.001698 -0.003051
v -0.002377 -0.002712 0.002737
v -0.000553 -0.001560 0.001150
v -0.002070 -0.000955 -0.004196
v -0.001243 -0.000807 -0.006604
v -0.007682 -0.003323 -0.012918
v -0.005993 -0.000001 -0.009321
v -0.005048 -0.002657 -0.010661
v -0.007760 -0.002806 -0.011614
v -0.000102 -0.002609 -0.014922
v -0.002596 -0.002559 -0.012663
v 0.000295 0.001098 -0.014401
v -0.001176 0.001966 -0.013455
v -0.001694 0.000810 -0.010858
v -0.003971 0.000401 -0.006531
v -0.003253 -0.000335 -0.006997
v -0.004152 -0.000625 -0.009511
v -0.003568 -0.002915 -0.010657
v -0.001315 -0.001576 -0.010023
v 0.000305 -0.001125 -0.009654
v -0.002204 -0.002936 -0.010229
v -0.001713 0.000671 0.003951
v -0.000877 0.003060 0.002813
v -0.001569 -0.001422 0.001811
v -0.000206 -0.001027 0.003379
v -0.001097 0.003114 0.004621
v -0.002174 0.002576 0.003408
v -0.007555 0.000213 -0.010219
v -0.005485 0.001103 -0.006813
v -0.007440 0.001187 -0.006523
v -0.009429 0.000432 -0.005103
v -0.009108 0.001052 -0.005629
v -0.008189 0.000632 -0.003331
v -0.008422 0.001493 -0.006522
v -0.000272 -0.000296 0.001748
v -0.001712 0.001291 0.001104
v -0.001677 -0.000393 0.000376
v -0.000458 -0.000019 -0.000827
v -0.000326 0.002875 0.001788
v -0.001315 0.002561 0.003604
v -0.000018 0.003382 0.003338
v 0.000007 -0.000289 0.001313
v -0.000007 0.000667 -0.000173
v -0.000063 0.000782 0.003100
v -0.000825 0.002092 -0.000272
v 0.000265 0.000641 0.001947
v -0.001653 -0.001692 -0.007948
v -0.000484 0.004458 0.005028
v -0.000071 0.003154 0.001119
v 0.005325 0.007922 0.002288
v 0.007865 0.010186 -0.001412
v 0.007079 0.012668 -0.001630
v 0.004418 0.012465 0.000829
v 0.007382 0.006307 0.000850
v 0.007521 0.008119 -0.001093
v 0.001882 0.008000 0.003232
v 0.003701 0.007832 0.003003
v 0.003805 -0.001302 0.001409
v 0.003820 0.000541 0.002035
v 0.003033 0.001275 0.003217
v 0.007960 0.004077 -0.001349
v 0.007134 0.004297 -0.001542
v 0.007503 0.007604 -0.002174
v 0.009404 0.008269 -0.006279
v 0.006595 0.000474 0.000904
v 0.007428 0.005064 -0.000449
v 0.003352 0.007893 0.002724
v 0.001598 0.005970 0.002614
v 0.001373 0.004793 0.002610
v 0.004162 0.001942 0.002866
v 0.002643 0.002867 0.002822
v 0.006987 0.001536 0.000220
v 0.007117 0.002108 -0.001096
v 0.006473 0.004265 -0.002365
v 0.002532 0.005787 -0.000353
v 0.002377 0.002103 0.001706
v 0.004128 0.000894 0.000605
v 0.007900 0.002496 -0.004773
v 0.009365 0.001618 -0.008121
v 0.001642 0.004768 -0.000426
v 0.005058 0.001536 -0.001534
v 0.002368 0.002537 -0.000361
v 0.003088 0.001989 -0.001036
v 0.006254 0.005381 -0.001785
v 0.003249 0.004274 -0.002141
v 0.005793 0.001085 0.001877
v 0.009164 0.001579 -0.003206
v 0.007749 0.002852 -0.000473
v 0.003132 0.001215 0.002547
v 0.006660 -0.000952 0.000335
v 0.004994 -0.000945 -0.000452
v 0.008277 -0.000738 -0.000564
v 0.009698 0.000745 -0.006438
v 0.009097 0.000363 -0.007446
v 0.005156 0.016542 -0.004737
v 0.007265 0.015006 -0.011703
v 0.009947 0.010579 -0.011334
v 0.008653 0.012772 -0.005193
v 0.008659 0.011843 -0.017081
v 0.006110 0.011910 -0.020522
v 0.001928 0.017133 -0.013969
v 0.006422 0.014393 -0.016657
v 0.002123 0.014960 -0.018975
v 0.000971 0.011064 -0.022750
v -0.000307 0.002419 -0.023846
v 0.008771 0.006988 -0.020266
v 0.006162 0.001290 -0.022632
v 0.007707 -0.000974 -0.019404
v 0.005107 -0.001826 -0.020815
v 0.008619 0.000161 -0.012571
v 0.009425 0.001049 -0.014793
v 0.008937 -0.000661 -0.016875
v 0.007963 -0.003021 -0.013064
v 0.009606 0.000761 -0.010866
v 0.006318 -0.002927 -0.017605
v 0.007549 0.000210 -0.010142
v 0.004383 -0.002042 -0.001749
v 0.004851 -0.003050 -0.001084
v 0.004197 -0.002761 0.001810
v 0.003082 -0.002905 0.003858
v 0.001008 -0.002349 0.005273
v 0.000430 -0.002784 0.004772
v 0.003622 -0.003610 -0.001166
v 0.002960 -0.003027 0.002161
v 0.004044 -0.003254 -0.002323
v 0.006422 -0.001367 -0.001600
v 0.007113 0.001159 -0.005444
v 0.005897 0.001281 -0.005550
v 0.004963 -0.000778 -0.002276
v 0.003709 -0.001406 -0.002855
v 0.001070 -0.001072 -0.003025
v 0.002247 -0.002097 -0.002497
v 0.000966 -0.001685 0.001313
v 0.001831 -0.000628 -0.005919
v 0.007400 -0.003212 -0.011700
v 0.004855 -0.000087 -0.009347
v 0.005497 -0.002303 -0.010340
v -0.000474 -0.001855 -0.001912
v 0.001086 -0.001315 -0.007368
v 0.003127 -0.003023 -0.012492
v 0.002419 -0.001690 -0.012660
v 0.000044 0.002385 -0.013569
v 0.001985 0.000811 -0.011134
v 0.003975 0.000425 -0.006621
v 0.003571 -0.000375 -0.007379
v 0.002748 -0.001528 -0.009046
v 0.003914 -0.002753 -0.010720
v 0.002291 -0.002973 -0.010559
v 0.000497 0.004429 0.005090
v 0.001067 -0.000759 0.004318
v 0.001712 0.000276 0.004073
v 0.001836 0.001043 0.003103
v 0.000912 0.003177 0.003143
v 0.001129 0.003112 0.004652
v 0.008467 0.001363 -0.006635
v 0.007687 0.001008 -0.006910
v 0.009395 0.000420 -0.004146
v 0.008992 0.000837 -0.004794
v 0.007809 0.001271 -0.003144
v 0.007521 -0.000036 -0.002922
v 0.001656 -0.001280 0.001702
v 0.000213 -0.001055 0.002409
v 0.001341 0.002476 0.003558
v 0.001641 -0.000158 0.000330
v 0.000469 -0.000085 -0.000862
v 0.001600 0.001217 0.000608
v 0.000768 0.002437 0.000086
v 0.000335 0.002879 0.001794
v 0.000033 -0.000506 0.004727
v 0.000161 -0.000750 0.003571
vn -0.6287 -0.7776 0.0092
vn -0.7848 0.1162 0.6088
vn -0.6859 0.3335 0.6468
vn -0.5422 0.6797 0.4941
vn -0.9885 -0.0138 0.1507
vn -0.7737 -0.3551 -0.5247
vn -0.8420 0.4011 0.3608
vn 0.8563 0.4871 -0.1714
vn 0.8813 0.3953 0.2589
vn 0.9618 0.1414 -0.2344
vn 0.4121 -0.0853 -0.9071
vn 0.8703 0.3965 0.2920
vn 0.9214 -0.0770 -0.3810
vn 0.9744 0.1125 -0.1944
vn -0.8133 -0.1132 -0.5708
vn 0.4436 -0.5733 -0.6888
vn 0.6071 -0.6994 -0.3772
vn -0.3037 -0.9241 -0.2320
vn 0.7437 -0.3066 -0.5940
vn 0.2319 -0.9666 -0.1090
vn -0.7421 -0.5607 0.3674
vn -0.1362 -0.9883 -0.0689
vn -0.3687 -0.3483 0.8618
vn 0.6550 0.7556 0.0019
vn -0.9281 0.3088 0.2081
vn -0.4997 0.4768 -0.7232
vn -0.7617 0.4970 0.4158
vn 0.0573 0.9512 0.3031
vn -0.2695 0.7719 0.5758
vn -0.6299 0.1888 0.7533
vn 0.1834 0.1774 -0.9669
vn 0.0218 0.9288 0.3699
vn -0.6233 0.0323 -0.7813
vn 0.8307 0.1237 -0.5428
vn 0.1954 0.2193 0.9559
vn 0.6734 0.5248 -0.5208
vn 0.3086 -0.5366 0.7854
vn 0.7157 -0.5319 -0.4527
vn 0.5387 0.8406 0.0568
vn 0.6825 0.3887 0.6189
vn 0.6955 -0.0971 -0.7119
vn 0.8742 0.3596 0.3263
vn -0.8254 0.4701 0.3126
vn -0.8071 0.5591 -0.1898
vn -0.2964 0.7010 0.6486
vn 0.8325 0.5526 0.0396
vn -0.8113 0.5122 0.2818
vn -0.9591 0.0543 -0.2780
vn -0.7188 -0.3291 -0.6124
vn -0.6596 0.4794 -0.5789
vn -0.1525 0.2077 -0.9662
vn -0.5301 -0.5281 -0.6634
vn -0.2820 -0.8993 -0.3343
vn -0.3291 -0.3885 0.8607
vn 0.1675 0.7426 0.6484
vn 0.0107 0.7547 -0.6560
vn -0.6899 -0.5088 -0.5150
vn -0.1395 -0.9306 -0.3383
vn 0.7257 -0.6470 0.2341
vn -0.9073 -0.1545 -0.3911
vn -0.0483 -0.9888 -0.1410
vn -0.6001 0.7892 0.1304
vn 0.7116 -0.0039 0.7026
vn 0.6384 0.2032 0.7424
vn -0.1554 0.9377 0.3107
vn -0.2533 0.9664 -0.0432
vn 0.4669 0.6103 0.6400
vn -0.3374 0.2833 0.8977
vn -0.0280 0.8771 -0.4795
vn -0.1992 0.9800 0.0028
vn -0.0161 -0.9669 0.2547
vn -0.6257 0.6045 -0.4930
vn 0.7561 0.1580 -0.6351
vn -0.0959 0.4992 0.8612
vn -0.7654 0.5291 0.3663
vn -0.4342 0.4728 -0.7668
vn -0.7758 -0.5751 0.2595
vn 0.1770 -0.4329 -0.8839
vn 0.7419 0.5396 -0.3980
vn 0.2685 -0.9371 0.2229
vn -0.7352 0.6334 -0.2413
vn 0.7319 0.6679 0.1348
vn 0.5880 -0.8075 0.0463
vn -0.7399 -0.6689 0.0711
vn -0.4552 -0.7418 0.4924
vn 0.2957 0.4421 0.8468
vn -0.8735 0.4855 -0.0357
vn -0.1011 -0.5657 -0.8184
vn 0.4747 0.6114 -0.6331
vn 0.7763 -0.6036 0.1818
vn -0.7100 0.6420 -0.2893
vn 0.8557 0.3712 -0.3605
vn 0.1957 -0.5056 -0.8403
vn 0.4364 -0.7805 0.4477
vn 0.2461 0.4872 0.8379
vn -0.7491 -0.6333 0.1945
vn -0.0232 0.9994 0.0272
vn -0.0084 1.0000 -0.0028
vn 0.0003 1.0000 0.0013
vn -0.6150 -0.7628 -0.1997
vn 0.7576 0.6526 0.0142
vn 0.4106 -0.6892 0.5970
vn -0.4967 0.7881 -0.3635
vn 0.3428 0.5666 -0.7493
vn 0.0579 -0.9438 0.3253
vn -0.9286 0.0855 -0.3612
vn -0.7193 0.6765 0.1579
vn -0.3419 -0.9389 -0.0401
vn 0.5173 -0.5128 0.6852
vn 0.8321 -0.5492 -0.0766
vn -0.7084 0.5376 0.4573
vn -0.3924 -0.3473 -0.8517
vn 0.1521 -0.8182 0.5544
vn 0.7878 0.5997 -0.1409
vn 0.4858 0.2951 -0.8227
vn 0.8589 0.5094 0.0522
vn 0.3383 -0.7531 0.5644
vn 0.0263 -0.6480 -0.7611
vn -0.6568 0.6468 -0.3876
vn -0.6878 -0.7164 -0.1170
vn -0.2952 0.4492 0.8432
vn 0.7332 0.6753 -0.0793
vn 0.5304 -0.4197 0.7366
vn 0.5095 -0.6133 -0.6035
vn -0.5066 -0.8622 -0.0078
vn -0.6323 0.4305 0.6441
vn 0.3740 0.1250 -0.9190
vn 0.8361 0.4830 0.2602
vn -0.8920 0.4487 0.0544
vn 0.6142 0.7144 0.3352
vn 0.1891 0.3226 -0.9275
vn 0.2791 -0.9171 0.2848
vn 0.1378 -0.9407 0.3099
vn 0.3081 -0.9133 0.2664
vn -0.8706 0.4792 0.1117
vn 0.4166 0.9082 -0.0397
vn -0.2968 -0.7727 -0.5612
vn 0.4615 -0.6735 0.5774
vn 0.2872 0.8967 0.3367
vn -0.6722 0.4533 -0.5855
vn 0.0245 -0.5928 0.8050
vn 0.2681 -0.7692 -0.5801
vn 0.1277 0.4833 -0.8661
vn 0.8830 -0.4115 -0.2257
vn -0.5096 -0.6998 -0.5006
vn -0.7729 0.6043 -0.1936
vn -0.8245 0.2203 0.5213
vn 0.2955 -0.5819 0.7577
vn 0.0095 0.8774 0.4797
vn 0.5484 0.8338 -0.0639
vn -0.7760 0.5032 0.3802
vn -0.5995 0.3734 -0.7079
vn -0.7105 -0.6783 0.1874
vn 0.0094 0.6872 0.7264
vn 0.3551 -0.5321 0.7686
vn 0.5037 0.7197 -0.4778
vn -0.1129 -0.7136 -0.6913
vn -0.0087 -0.9426 0.3339
vn 0.0195 -0.9488 0.3152
vn 0.0763 -0.9715 0.2242
vn 0.8407 -0.4756 -0.2590
vn -0.7252 0.5897 0.3555
vn 0.2187 -0.9536 0.2068
vn 0.5563 0.7924 0.2503
vn -0.1143 -0.3887 -0.9143
vn 0.3058 -0.9312 -0.1982
vn 0.4395 -0.8739 -0.2079
vn 0.3108 -0.9278 -0.2063
vn 0.7291 -0.6602 -0.1802
vn -0.0375 0.4799 -0.8765
vn -0.7970 -0.5358 -0.2787
vn -0.5583 0.8268 -0.0688
vn 0.2451 -0.6286 -0.7381
vn 0.8047 0.5705 -0.1640
vn 0.6903 -0.5826 0.4290
vn 0.1451 0.6981 0.7012
vn -0.6402 -0.3248 0.6962
vn -0.2863 -0.5247 0.8017
vn 0.0570 0.6951 0.7166
vn -0.4202 0.7318 -0.5366
vn -0.8774 -0.4576 -0.1443
vn 0.9203 0.3770 -0.1050
vn 0.1336 -0.5984 -0.7900
vn 0.7390 -0.6519 0.1702
vn 0.2440 -0.8765 -0.4151
vn 0.1615 -0.9858 -0.0459
vn 0.0609 0.7553 -0.6525
vn -0.5704 0.3517 0.7423
vn -0.0384 0.4382 0.8981
vn -0.5441 0.5186 0.6596
vn -0.0325 0.7419 0.6698
vn -0.7018 -0.1033 0.7048
vn -0.9191 0.0315 0.3928
vn -0.2350 -0.6670 0.7070
vn -0.0552 0.2712 0.9609
vn -0.0504 0.0297 0.9983
vn -0.4212 -0.4902 0.7631
vn -0.5887 -0.7011 0.4024
vn -0.5332 0.1463 0.8332
vn -0.7597 -0.6342 0.1439
vn -0.4652 0.2409 0.8518
vn 0.0118 -0.7409 0.6715
vn 0.2304 -0.6649 0.7105
vn -0.8510 -0.2317 0.4713
vn -0.9909 0.1162 0.0680
vn -0.9405 0.2786 0.1947
vn -0.6969 0.6469 -0.3098
vn -0.6253 0.5116 0.5893
vn 0.5272 -0.1389 0.8383
vn 0.9176 0.3135 0.2445
vn 0.3420 0.8256 0.4488
vn -0.9250 -0.3011 0.2319
vn -0.9569 -0.0684 0.2821
vn -0.9811 -0.1851 0.0562
vn -0.2318 0.8844 0.4051
vn -0.8151 0.4624 0.3490
vn -0.2551 0.9613 0.1044
vn -0.2787 -0.5018 0.8189
vn -0.3731 0.2146 0.9026
vn 0.0146 0.5887 0.8082
vn -0.7164 0.6655 0.2096
vn -0.5359 -0.2336 0.8113
vn -0.3780 0.6271 0.6811
vn -0.7991 -0.5850 0.1385
vn -0.9413 0.2728 -0.1987
vn -0.9663 -0.1200 0.2279
vn -0.5622 -0.6159 0.5518
vn -0.2336 -0.9205 0.3133
vn -0.8870 0.4616 0.0131
vn -0.3844 -0.9013 -0.2000
vn -0.3869 0.9220 0.0185
vn -0.7519 0.6549 -0.0763
vn -0.1709 0.9627 -0.2097
vn -0.5618 0.7642 -0.3169
vn -0.1337 0.7805 -0.6108
vn 0.0554 0.4727 -0.8795
vn -0.4287 0.5655 -0.7046
vn -0.2243 0.1172 -0.9675
vn 0.2962 0.1372 -0.9452
vn -0.9753 0.2204 0.0114
vn -0.9895 -0.1145 -0.0882
vn -0.8345 0.4124 -0.3654
vn -0.6179 -0.2300 -0.7519
vn -0.9032 -0.3687 -0.2198
vn -0.9007 0.0846 -0.4261
vn -0.3161 -0.9338 0.1678
vn -0.9401 -0.3371 0.0513
vn -0.2691 -0.5782 -0.7703
vn -0.0246 -0.2176 -0.9757
vn -0.4407 -0.7901 -0.4261
vn -0.4654 -0.8829 0.0631
vn -0.4091 -0.8002 0.4386
vn -0.6107 -0.6250 0.4862
vn -0.2522 -0.3269 0.9108
vn -0.9205 -0.3833 0.0758
vn -0.8461 0.1267 0.5177
vn 0.1013 -0.9862 -0.1309
vn -0.0660 -0.9786 -0.1946
vn -0.2846 -0.8538 -0.4360
vn -0.5333 -0.5211 -0.6664
vn 0.0450 -0.7652 -0.6422
vn -0.5476 -0.4001 -0.7349
vn 0.1275 -0.9789 -0.1600
vn 0.3201 -0.7991 -0.5088
vn 0.2036 -0.9739 -0.1008
vn -0.2848 -0.9494 -0.1324
vn 0.0029 -0.9653 0.2612
vn -0.0241 -0.9827 0.1834
vn 0.3258 -0.9429 -0.0692
vn -0.4723 -0.8760 0.0977
vn -0.5271 -0.7539 -0.3922
vn -0.2839 -0.9565 0.0670
vn -0.2724 -0.9161 -0.2942
vn -0.4345 -0.8822 0.1815
vn -0.1577 -0.9723 0.1725
vn -0.3138 -0.7028 0.6385
vn -0.1200 -0.7883 0.6035
vn -0.0153 -0.9972 -0.0728
vn -0.0102 -0.9666 -0.2560
vn -0.1456 -0.9125 0.3824
vn 0.8786 0.3299 0.3452
vn -0.0152 -0.8462 0.5326
vn -0.2303 -0.3276 0.9163
vn 0.6136 -0.5662 -0.5504
vn 0.6562 -0.6633 0.3598
vn -0.1983 -0.9340 0.2974
vn -0.3580 -0.6747 0.6455
vn -0.1893 -0.8777 0.4403
vn 0.7244 -0.5642 -0.3961
vn 0.0809 -0.9371 0.3396
vn -0.3175 -0.0082 0.9482
vn 0.1467 -0.3253 0.9342
vn 0.5761 -0.7830 0.2347
vn 0.7887 -0.1490 0.5965
vn 0.2208 0.7932 0.5675
vn 0.4557 0.8840 0.1043
vn -0.6368 0.3085 0.7066
vn 0.9235 -0.3831 0.0200
vn -0.1654 -0.9433 0.2878
vn -0.5145 -0.2835 0.8093
vn 0.1575 -0.4056 -0.9004
vn -0.7252 0.6393 -0.2558
vn -0.6701 0.2247 -0.7075
vn 0.9396 0.0870 0.3312
vn 0.8063 0.3600 0.4693
vn -0.0342 -0.8551 0.5174
vn 0.9482 -0.2591 0.1836
vn -0.1888 0.3710 0.9092
vn 0.4124 -0.4807 0.7738
vn -0.4662 0.8845 -0.0198
vn -0.9502 0.2906 -0.1126
vn -0.7474 -0.4447 -0.4936
vn -0.1822 0.0122 0.9832
vn 0.5518 0.8338 0.0182
vn -0.0444 -0.0176 0.9989
vn 0.2135 -0.9647 -0.1543
vn 0.8629 -0.0234 -0.5048
vn -0.0365 0.8530 0.5207
vn 0.0190 0.9975 0.0687
vn -0.0061 -0.9885 0.1514
vn 0.3967 0.5326 0.7476
vn 0.4973 0.1233 0.8588
vn 0.8685 0.1084 0.4837
vn -0.3325 -0.6664 0.6673
vn 0.2809 0.2117 0.9361
vn 0.9038 0.3064 -0.2986
vn 0.6980 -0.2064 0.6857
vn 0.9733 0.0030 0.2293
vn 0.2389 -0.1986 0.9505
vn -0.3038 0.1051 0.9469
vn -0.0919 0.3922 0.9153
vn 0.8979 0.1032 0.4280
vn 0.5793 -0.1175 0.8066
vn 0.8795 0.1848 -0.4386
vn 0.5002 0.2916 -0.8153
vn 0.9631 -0.1408 0.2295
vn 0.5023 0.6302 0.5921
vn 0.5858 -0.1354 0.7991
vn -0.2679 0.8093 0.5228
vn -0.6289 0.5269 0.5718
vn -0.3068 -0.7092 0.6347
vn 0.1651 0.9850 -0.0507
vn 0.7123 0.6638 -0.2280
vn -0.1731 -0.1246 0.9770
vn 0.9785 0.0090 0.2062
vn 0.7532 -0.1982 0.6272
vn 0.4331 0.8593 0.2722
vn 0.4538 -0.7260 0.5167
vn 0.9197 -0.1335 0.3693
vn 0.8453 0.4326 0.3136
vn -0.0133 0.7293 0.6841
vn 0.5693 0.6094 0.5519
vn -0.4295 -0.0963 0.8979
vn 0.4103 -0.1467 0.9001
vn 0.6895 0.4816 0.5410
vn 0.8833 0.4203 0.2078
vn -0.2092 -0.8741 0.4384
vn 0.7260 -0.5590 0.4005
vn 0.7456 0.6436 -0.1729
vn 0.4206 -0.8492 0.3192
vn 0.3629 -0.8495 0.3829
vn 0.9447 -0.1238 -0.3036
vn 0.0734 -0.7052 0.7052
vn 0.0385 -0.9813 -0.1884
vn 0.9972 -0.0691 0.0292
vn 0.7235 -0.6808 -0.1143
vn 0.5285 0.7773 -0.3414
vn 0.5009 0.5314 -0.6832
vn 0.1898 0.8151 -0.5473
vn 0.8492 0.0978 -0.5189
vn 0.5174 -0.2810 -0.8083
vn 0.8442 0.4372 -0.3101
vn 0.9716 0.2356 -0.0197
vn 0.9004 -0.3791 -0.2136
vn -0.0065 -0.6229 -0.7823
vn 0.2763 -0.7503 -0.6006
vn 0.9782 -0.1938 -0.0750
vn 0.7980 -0.5829 0.1531
vn 0.8237 -0.5656 0.0405
vn 0.3876 -0.8222 0.4168
vn 0.6997 -0.7115 0.0642
vn 0.9336 -0.3532 -0.0605
vn 0.8477 -0.3814 0.3686
vn 0.6247 -0.5465 0.5578
vn 0.2468 -0.2532 0.9354
vn -0.1301 -0.9875 -0.0885
vn -0.1188 -0.9929 0.0105
vn 0.2970 -0.6510 -0.6985
vn 0.2036 -0.9671 -0.1529
vn -0.0602 -0.6284 -0.7755
vn 0.3335 -0.8513 -0.4050
vn 0.4436 -0.6544 -0.6124
vn -0.2689 -0.8470 -0.4586
vn -0.0653 -0.9259 -0.3720
vn 0.2055 -0.9782 -0.0302
vn 0.5202 -0.7715 0.3664
vn 0.4724 -0.8783 0.0741
vn 0.4679 -0.7878 0.4006
vn 0.2265 -0.5791 0.7832
vn 0.3805 -0.6910 0.6146
vn 0.3397 -0.9108 -0.2346
vn -0.2521 -0.9615 0.1092
vn -0.8929 -0.2682 0.3617
vn -0.7005 -0.6111 -0.3685
vn -0.1635 -0.7939 -0.5856
vn 0.5087 -0.5796 0.6366
vn 0.1076 -0.9249 0.3647
vn -0.4526 -0.8909 0.0369
vn -0.9951 -0.0778 -0.0608
vn -0.4440 0.6607 -0.6053
vn -0.6119 -0.7459 0.2632
vn 0.4336 -0.0269 0.9007
vn 0.0247 -0.9482 0.3166
vn 0.3555 -0.9343 -0.0259
vn 0.3365 -0.9388 0.0736
vn 0.3795 -0.4395 0.8141
vn 0.9862 -0.0296 0.1632
vn -0.9204 0.0915 -0.3802
vn -0.5688 0.8150 0.1105
vn -0.4720 -0.6056 0.6407
vn -0.9110 -0.4050 0.0780
vn 0.6846 0.7290 0.0015
vn 0.1576 0.3472 0.9245
vn 0.1875 0.9586 -0.2142
vn 0.4239 0.9009 0.0928
vn 0.8795 0.1954 0.4340
vn -0.4582 -0.7710 0.4423
vn 0.4647 -0.8390 -0.2831
vn 0.4201 0.5569 0.7165
vn 0.4269 0.5863 0.6885
vn -0.4926 0.2960 -0.8183
vn -0.0815 -0.8546 -0.5129
vn 0.0244 0.5633 -0.8259
vn -0.0721 -0.9708 0.2289
vn 0.9741 -0.1119 0.1967
vn 0.8845 -0.1675 0.4355
vn 0.7960 -0.1352 0.5900
vn -0.8790 0.2318 0.4166
vn 0.0543 -0.5709 0.8193
vn 0.1448 0.8688 0.4735
vn -0.9010 0.1663 -0.4006
vn 0.0370 0.9867 0.1585
vn -0.1605 -0.7247 0.6701
vn -0.5532 0.2623 -0.7906
vn 0.4002 -0.9066 0.1340
vn 0.2134 0.0500 0.9757
vn 0.7891 0.6047 0.1081
vn 0.9700 -0.0183 0.2426
vn 0.9428 -0.2435 0.2275
vn 0.4972 -0.2888 0.8182
vn 0.6607 0.7462 -0.0819
vn 0.7659 -0.4422 -0.4668
vn -0.8479 0.2268 0.4793
vn -0.8934 -0.2489 0.3739
vt 0.117156 0.695552
vt 0.184157 0.712158
vt 0.123909 0.754381
vt 0.082972 0.806758
vt 0.077738 0.738420
vt 0.057923 0.711458
vt 0.040059 0.794867
vt 0.059316 0.795376
vt 0.439216 0.941147
vt 0.422296 0.912360
vt 0.451876 0.937753
vt 0.412610 0.944901
vt 0.433450 0.949318
vt 0.369577 0.920707
vt 0.349407 0.874649
vt 0.396417 0.897465
vt 0.429963 0.881071
vt 0.415039 0.854309
vt 0.378354 0.845738
vt 0.398284 0.841276
vt 0.366106 0.833536
vt 0.290604 0.846394
vt 0.292851 0.823024
vt 0.180132 0.692013
vt 0.244610 0.683513
vt 0.230155 0.699209
vt 0.193719 0.684268
vt 0.454051 0.951740
vt 0.451438 0.959596
vt 0.016052 0.814051
vt 0.012565 0.805813
vt 0.021042 0.805687
vt 0.178056 0.744222
vt 0.151479 0.749025
vt 0.219228 0.745561
vt 0.196128 0.718035
vt 0.338511 0.897704
vt 0.243617 0.871917
vt 0.240651 0.894179
vt 0.210159 0.877114
vt 0.279499 0.878045
vt 0.271184 0.896979
vt 0.239139 0.749944
vt 0.263371 0.736948
vt 0.330115 0.885985
vt 0.270391 0.693083
vt 0.445229 0.710361
vt 0.429422 0.808466
vt 0.381614 0.753325
vt 0.460005 0.736987
vt 0.459287 0.792334
vt 0.392062 0.773931
vt 0.084101 0.960371
vt 0.069931 0.943470
vt 0.094129 0.956822
vt 0.442849 0.796947
vt 0.484116 0.805588
vt 0.052832 0.946974
vt 0.039487 0.943159
vt 0.081126 0.890734
vt 0.110688 0.917003
vt 0.189796 0.846742
vt 0.147333 0.886308
vt 0.488919 0.794792
vt 0.064443 0.856135
vt 0.093813 0.840790
vt 0.948100 0.609292
vt 0.944349 0.628043
vt 0.924760 0.626045
vt 0.924056 0.601952
vt 0.383361 0.690454
vt 0.413743 0.700570
vt 0.344964 0.694092
vt 0.124004 0.833681
vt 0.132057 0.872542
vt 0.167621 0.820830
vt 0.191033 0.823763
vt 0.239610 0.822005
vt 0.487605 0.813366
vt 0.473194 0.806357
vt 0.313464 0.708429
vt 0.310256 0.718247
vt 0.132833 0.897353
vt 0.191569 0.892534
vt 0.212306 0.896652
vt 0.366976 0.754905
vt 0.336614 0.759858
vt 0.295207 0.747125
vt 0.362809 0.765359
vt 0.824598 0.651454
vt 0.839193 0.652523
vt 0.816450 0.679951
vt 0.873145 0.753978
vt 0.903439 0.751319
vt 0.898189 0.765452
vt 0.897122 0.739236
vt 0.677256 0.878906
vt 0.693726 0.873360
vt 0.684160 0.891753
vt 0.696191 0.893568
vt 0.708035 0.876550
vt 0.794401 0.719376
vt 0.798963 0.694428
vt 0.802670 0.717783
vt 0.809327 0.720684
vt 0.834906 0.696594
vt 0.853971 0.697470
vt 0.852465 0.713962
vt 0.969907 0.654592
vt 0.966291 0.671885
vt 0.953126 0.651421
vt 0.618010 0.855686
vt 0.599813 0.849203
vt 0.612301 0.830185
vt 0.634666 0.848899
vt 0.640885 0.827541
vt 0.532733 0.897162
vt 0.509676 0.902886
vt 0.524822 0.884041
vt 0.533195 0.870937
vt 0.514323 0.866420
vt 0.533653 0.810663
vt 0.528222 0.844257
vt 0.511544 0.832153
vt 0.751058 0.716595
vt 0.740531 0.696599
vt 0.766144 0.702780
vt 0.761235 0.724851
vt 0.512305 0.813512
vt 0.516812 0.792474
vt 0.630736 0.887524
vt 0.622810 0.906366
vt 0.603717 0.882839
vt 0.838926 0.948057
vt 0.815089 0.937770
vt 0.837331 0.936992
vt 0.768546 0.976817
vt 0.794083 0.987777
vt 0.769503 0.985280
vt 0.845536 0.794486
vt 0.817247 0.800570
vt 0.839802 0.784769
vt 0.884736 0.604485
vt 0.888961 0.624684
vt 0.880601 0.626236
vt 0.894758 0.630505
vt 0.620636 0.943771
vt 0.609682 0.930095
vt 0.620381 0.923997
vt 0.936937 0.717066
vt 0.946355 0.696845
vt 0.954043 0.715140
vt 0.670244 0.740995
vt 0.694907 0.742409
vt 0.691651 0.767678
vt 0.674387 0.763189
vt 0.634719 0.699254
vt 0.636797 0.724790
vt 0.627247 0.719600
vt 0.653677 0.705926
vt 0.610471 0.724842
vt 0.606488 0.708735
vt 0.682124 0.724059
vt 0.684449 0.699294
vt 0.703191 0.704421
vt 0.820377 0.630014
vt 0.833819 0.622788
vt 0.840405 0.631449
vt 0.663770 0.706432
vt 0.726816 0.872790
vt 0.750433 0.866563
vt 0.750456 0.884965
vt 0.917090 0.905912
vt 0.899683 0.900619
vt 0.918609 0.898498
vt 0.816831 0.827490
vt 0.833519 0.825220
vt 0.838416 0.846964
vt 0.972875 0.699974
vt 0.981468 0.695102
vt 0.984179 0.701983
vt 0.913440 0.976714
vt 0.901492 0.981991
vt 0.904257 0.969552
vt 0.770019 0.866841
vt 0.793888 0.865304
vt 0.782737 0.887057
vt 0.814336 0.845228
vt 0.812329 0.757691
vt 0.784006 0.769152
vt 0.783980 0.752209
vt 0.917646 0.826223
vt 0.932422 0.823379
vt 0.923633 0.846419
vt 0.908115 0.847359
vt 0.940859 0.762728
vt 0.928417 0.760309
vt 0.938547 0.739934
vt 0.863016 0.672095
vt 0.854431 0.650250
vt 0.880221 0.648019
vt 0.640705 0.770814
vt 0.637340 0.745400
vt 0.653783 0.753233
vt 0.568083 0.841126
vt 0.551292 0.834657
vt 0.567182 0.824234
vt 0.566757 0.812060
vt 0.546821 0.797837
vt 0.615274 0.765526
vt 0.597799 0.752786
vt 0.607150 0.742621
vt 0.627591 0.769420
vt 0.755478 0.762945
vt 0.735990 0.762792
vt 0.750222 0.742499
vt 0.551082 0.956030
vt 0.557292 0.932078
vt 0.576437 0.939481
vt 0.558174 0.974475
vt 0.722677 0.754210
vt 0.726992 0.741392
vt 0.892716 0.831322
vt 0.866022 0.836551
vt 0.861545 0.824182
vt 0.767687 0.951377
vt 0.775973 0.937645
vt 0.782214 0.959687
vt 0.898007 0.789841
vt 0.925350 0.794951
vt 0.909244 0.807150
vt 0.796238 0.941813
vt 0.979761 0.838759
vt 0.949366 0.828477
vt 0.983391 0.824728
vt 0.796763 0.799519
vt 0.769178 0.798836
vt 0.770855 0.785897
vt 0.749231 0.800712
vt 0.753082 0.812375
vt 0.726868 0.797073
vt 0.863728 0.806674
vt 0.875010 0.784408
vt 0.878549 0.806605
vt 0.550749 0.876662
vt 0.575994 0.880824
vt 0.553053 0.891456
vt 0.647267 0.793144
vt 0.640581 0.812577
vt 0.625946 0.807980
vt 0.617308 0.793044
vt 0.612951 0.811564
vt 0.582699 0.914861
vt 0.558099 0.908795
vt 0.578807 0.903095
vt 0.550162 0.903746
vt 0.508364 0.936415
vt 0.532606 0.954613
vt 0.525110 0.972280
vt 0.500977 0.966755
vt 0.687557 0.793054
vt 0.669377 0.815270
vt 0.672508 0.789449
vt 0.691644 0.812093
vt 0.695592 0.926017
vt 0.669460 0.916979
vt 0.697632 0.912446
vt 0.939212 0.789475
vt 0.960671 0.786045
vt 0.954578 0.807309
vt 0.969818 0.799268
vt 0.944532 0.895473
vt 0.942257 0.908636
vt 0.932733 0.899682
vt 0.822805 0.895991
vt 0.831268 0.918075
vt 0.813011 0.912027
vt 0.844385 0.903838
vt 0.425898 0.292194
vt 0.496378 0.323412
vt 0.421038 0.343901
vt 0.485766 0.373850
vt 0.394652 0.267814
vt 0.373928 0.289079
vt 0.452692 0.268268
vt 0.454226 0.276120
vt 0.444989 0.274748
vt 0.444065 0.160984
vt 0.442019 0.155980
vt 0.468434 0.148771
vt 0.469341 0.245259
vt 0.484301 0.235445
vt 0.391966 0.258382
vt 0.409690 0.252854
vt 0.455056 0.242940
vt 0.457610 0.231298
vt 0.463750 0.211557
vt 0.439686 0.194864
vt 0.438678 0.172903
vt 0.372257 0.210967
vt 0.368434 0.199314
vt 0.381020 0.194357
vt 0.281447 0.238220
vt 0.304371 0.312126
vt 0.230396 0.288594
vt 0.441513 0.413090
vt 0.033539 0.603287
vt 0.045132 0.619448
vt 0.041935 0.643269
vt 0.093146 0.581309
vt 0.116599 0.612975
vt 0.094616 0.606571
vt 0.110564 0.558271
vt 0.080992 0.553873
vt 0.073646 0.609000
vt 0.090755 0.655796
vt 0.069108 0.589369
vt 0.052646 0.571853
vt 0.043353 0.557935
vt 0.377437 0.399695
vt 0.391393 0.159184
vt 0.371929 0.183392
vt 0.344066 0.161109
vt 0.348046 0.229406
vt 0.403586 0.113523
vt 0.464758 0.110469
vt 0.386548 0.126239
vt 0.769889 0.605543
vt 0.743343 0.614021
vt 0.746552 0.603092
vt 0.382043 0.459680
vt 0.315591 0.440956
vt 0.341817 0.524762
vt 0.277636 0.481984
vt 0.237952 0.555070
vt 0.157237 0.553765
vt 0.214670 0.504534
vt 0.121108 0.490906
vt 0.109105 0.536113
vt 0.297384 0.388418
vt 0.180531 0.346606
vt 0.238866 0.458981
vt 0.120876 0.419844
vt 0.146999 0.349693
vt 0.185342 0.428094
vt 0.230972 0.261423
vt 0.180968 0.318418
vt 0.083631 0.392993
vt 0.061398 0.465203
vt 0.097449 0.357299
vt 0.140836 0.292436
vt 0.195817 0.268642
vt 0.156238 0.280836
vt 0.488331 0.115844
vt 0.412769 0.100058
vt 0.445436 0.111177
vt 0.413978 0.082872
vt 0.362984 0.130641
vt 0.363687 0.097578
vt 0.397732 0.084479
vt 0.382900 0.053118
vt 0.384717 0.084939
vt 0.419638 0.036384
vt 0.404199 0.066218
vt 0.465698 0.060637
vt 0.456251 0.045072
vt 0.509848 0.105568
vt 0.484790 0.103398
vt 0.456665 0.088606
vt 0.203910 0.199889
vt 0.266886 0.205852
vt 0.217983 0.220639
vt 0.235009 0.185341
vt 0.218100 0.165700
vt 0.193012 0.156725
vt 0.184714 0.197162
vt 0.167351 0.174217
vt 0.191116 0.245889
vt 0.179960 0.134903
vt 0.147370 0.251073
vt 0.116575 0.311882
vt 0.034822 0.338922
vt 0.131457 0.238249
vt 0.094760 0.245322
vt 0.045759 0.274265
vt 0.401890 0.644603
vt 0.358264 0.668543
vt 0.355113 0.637089
vt 0.380370 0.596084
vt 0.370359 0.624616
vt 0.359083 0.621749
vt 0.170615 0.227303
vt 0.143401 0.190131
vt 0.112216 0.201326
vt 0.142982 0.170808
vt 0.396592 0.582294
vt 0.436998 0.624997
vt 0.433669 0.606586
vt 0.460346 0.600688
vt 0.430348 0.562857
vt 0.428159 0.537920
vt 0.458080 0.533479
vt 0.463553 0.183197
vt 0.494986 0.206121
vt 0.447576 0.593082
vt 0.244393 0.237917
vt 0.242344 0.253340
vt 0.293996 0.196456
vt 0.315676 0.189952
vt 0.298050 0.212817
vt 0.766303 0.619774
vt 0.762088 0.633156
vt 0.739577 0.620632
vt 0.768090 0.594647
vt 0.328269 0.141456
vt 0.331199 0.117202
vt 0.721642 0.627478
vt 0.468820 0.547367
vt 0.459341 0.610589
vt 0.463691 0.566675
vt 0.484352 0.547437
vt 0.484954 0.569986
vt 0.442069 0.519066
vt 0.481435 0.521846
vt 0.482771 0.595459
vt 0.188299 0.624452
vt 0.165848 0.613892
vt 0.187162 0.586686
vt 0.170589 0.636536
vt 0.495343 0.522911
vt 0.494719 0.550750
vt 0.186351 0.605789
vt 0.189843 0.616405
vt 0.194267 0.623108
vt 0.426578 0.519085
vt 0.433090 0.514875
vt 0.493970 0.589549
vt 0.510296 0.595270
vt 0.555787 0.337350
vt 0.573204 0.278435
vt 0.617777 0.320510
vt 0.493357 0.373183
vt 0.626880 0.238949
vt 0.634019 0.204322
vt 0.651878 0.233014
vt 0.609627 0.262824
vt 0.622365 0.285728
vt 0.548109 0.269185
vt 0.553668 0.272336
vt 0.525609 0.154943
vt 0.574259 0.123808
vt 0.551692 0.161941
vt 0.658358 0.241016
vt 0.704707 0.210589
vt 0.641533 0.284874
vt 0.565376 0.172507
vt 0.595318 0.167516
vt 0.619237 0.184661
vt 0.625707 0.202037
vt 0.589836 0.252980
vt 0.585257 0.187140
vt 0.560579 0.195713
vt 0.517261 0.189575
vt 0.532487 0.219465
vt 0.526294 0.236616
vt 0.588633 0.416718
vt 0.524966 0.418461
vt 0.606003 0.647922
vt 0.656941 0.643539
vt 0.596110 0.674527
vt 0.598918 0.630205
vt 0.579545 0.639910
vt 0.602038 0.603135
vt 0.572788 0.614906
vt 0.585873 0.584324
vt 0.641817 0.590395
vt 0.648141 0.569258
vt 0.667127 0.592314
vt 0.621179 0.596403
vt 0.660368 0.626472
vt 0.624248 0.625745
vt 0.596954 0.349934
vt 0.639704 0.371369
vt 0.569826 0.151840
vt 0.644412 0.155793
vt 0.684370 0.189524
vt 0.558493 0.157729
vt 0.607923 0.124208
vt 0.612467 0.097333
vt 0.623108 0.147412
vt 0.637725 0.129354
vt 0.273191 0.605973
vt 0.234685 0.623664
vt 0.242698 0.605296
vt 0.723877 0.493568
vt 0.785819 0.500614
vt 0.744386 0.549978
vt 0.834970 0.544138
vt 0.876088 0.494401
vt 0.815076 0.439603
vt 0.893991 0.423524
vt 0.923579 0.505778
vt 0.937847 0.479248
vt 0.751804 0.455327
vt 0.712641 0.388171
vt 0.849002 0.348403
vt 0.975522 0.417484
vt 0.919399 0.380741
vt 0.972459 0.331900
vt 0.820605 0.335489
vt 0.815835 0.305669
vt 0.790093 0.305212
vt 0.803330 0.268976
vt 0.856461 0.298361
vt 0.596156 0.095996
vt 0.566051 0.107936
vt 0.538204 0.112022
vt 0.510621 0.117691
vt 0.498454 0.136354
vt 0.586366 0.083763
vt 0.549531 0.094330
vt 0.600321 0.082655
vt 0.661193 0.103540
vt 0.670502 0.130613
vt 0.632146 0.102466
vt 0.622676 0.081493
vt 0.607507 0.061771
vt 0.539847 0.068437
vt 0.581946 0.035245
vt 0.603151 0.036703
vt 0.788554 0.161735
vt 0.817180 0.170730
vt 0.776339 0.171980
vt 0.816608 0.204787
vt 0.798011 0.203322
vt 0.851691 0.280670
vt 0.846915 0.254098
vt 0.821948 0.235572
vt 0.837151 0.156711
vt 0.819883 0.136468
vt 0.900234 0.335456
vt 0.901769 0.253508
vt 0.313681 0.625789
vt 0.337770 0.599662
vt 0.347960 0.571633
vt 0.848654 0.182486
vt 0.845573 0.214273
vt 0.866646 0.242792
vt 0.875184 0.220248
vt 0.884784 0.189397
vt 0.912657 0.239706
vt 0.561789 0.562624
vt 0.547280 0.567030
vt 0.562341 0.532917
vt 0.535235 0.604023
vt 0.557262 0.605029
vt 0.550943 0.628019
vt 0.762279 0.244910
vt 0.766696 0.213804
vt 0.740602 0.227421
vt 0.767345 0.261426
vt 0.759716 0.255360
vt 0.284574 0.614170
vt 0.280118 0.626762
vt 0.252361 0.625459
vt 0.272230 0.627948
vt 0.280850 0.594550
vt 0.275631 0.589041
vt 0.669591 0.153928
vt 0.699263 0.193971
vt 0.707380 0.198379
vt 0.529748 0.535012
vt 0.543885 0.627667
vt 0.532757 0.614838
vt 0.504196 0.573009
vt 0.544409 0.590184
vt 0.147819 0.585824
vt 0.150684 0.635406
vt 0.147577 0.614229
vt 0.505722 0.547524
vt 0.746493 0.575375
vt 0.662962 0.529188
vt 0.109409 0.775273
vt 0.389190 0.957641
vt 0.075867 0.811476
vt 0.382118 0.957797
vt 0.046799 0.736557
vt 0.023423 0.775125
vt 0.421809 0.853381
vt 0.080660 0.700005
vt 0.336920 0.825475
vt 0.460650 0.951638
vt 0.345933 0.905647
vt 0.300130 0.897161
vt 0.338869 0.721636
vt 0.377406 0.758254
vt 0.414923 0.806259
vt 0.020491 0.945930
vt 0.050089 0.878021
vt 0.063014 0.848199
vt 0.305109 0.682815
vt 0.025032 0.952683
vt 0.800642 0.650985
vt 0.959764 0.749153
vt 0.983570 0.747600
vt 0.982589 0.763098
vt 0.959592 0.758825
vt 0.725225 0.980683
vt 0.748144 0.986255
vt 0.722821 0.989702
vt 0.752135 0.976402
vt 0.723919 0.970885
vt 0.768565 0.837951
vt 0.792599 0.826578
vt 0.794594 0.845527
vt 0.812991 0.699880
vt 0.818983 0.716214
vt 0.860223 0.720234
vt 0.872277 0.700006
vt 0.739614 0.720845
vt 0.635210 0.874801
vt 0.816490 0.952543
vt 0.796058 0.971472
vt 0.842744 0.810295
vt 0.723873 0.850357
vt 0.730574 0.830783
vt 0.750254 0.842084
vt 0.610343 0.964880
vt 0.624396 0.964037
vt 0.624844 0.978961
vt 0.613721 0.983310
vt 0.606364 0.982113
vt 0.600200 0.973600
vt 0.867213 0.616796
vt 0.635145 0.940634
vt 0.709740 0.765247
vt 0.716902 0.720830
vt 0.714970 0.704981
vt 0.818648 0.606192
vt 0.845959 0.606553
vt 0.951764 0.872684
vt 0.951711 0.864105
vt 0.969720 0.873233
vt 0.969616 0.864181
vt 0.974954 0.897748
vt 0.976584 0.906639
vt 0.962582 0.900036
vt 0.967439 0.609802
vt 0.981593 0.603493
vt 0.983175 0.612054
vt 0.680239 0.969855
vt 0.668463 0.952594
vt 0.696376 0.949483
vt 0.793682 0.740746
vt 0.836156 0.974616
vt 0.816239 0.977431
vt 0.811342 0.964507
vt 0.884864 0.703328
vt 0.908066 0.714962
vt 0.888083 0.722242
vt 0.933930 0.847490
vt 0.697659 0.849564
vt 0.667285 0.851138
vt 0.692339 0.842737
vt 0.882519 0.670890
vt 0.921714 0.739426
vt 0.575781 0.823922
vt 0.549100 0.943600
vt 0.582408 0.970265
vt 0.581504 0.987502
vt 0.903539 0.648258
vt 0.932120 0.655326
vt 0.897861 0.663548
vt 0.760008 0.768327
vt 0.550854 0.981556
vt 0.611272 0.772019
vt 0.945980 0.840673
vt 0.801479 0.787230
vt 0.752266 0.919524
vt 0.727267 0.914534
vt 0.729205 0.901861
vt 0.827740 0.746078
vt 0.854383 0.739977
vt 0.832490 0.765360
vt 0.756749 0.783796
vt 0.886020 0.783494
vt 0.862386 0.786035
vt 0.701197 0.786712
vt 0.709000 0.802400
vt 0.566410 0.863525
vt 0.502815 0.987121
vt 0.851543 0.861966
vt 0.851125 0.874995
vt 0.819043 0.867993
vt 0.626914 0.816378
vt 0.373041 0.331161
vt 0.370006 0.237034
vt 0.502317 0.233817
vt 0.341315 0.239144
vt 0.412113 0.186516
vt 0.503990 0.207896
vt 0.251695 0.252851
vt 0.024179 0.620330
vt 0.123569 0.586605
vt 0.431449 0.479801
vt 0.376674 0.147321
vt 0.715193 0.610774
vt 0.719230 0.597777
vt 0.171207 0.472326
vt 0.024901 0.416064
vt 0.478766 0.146833
vt 0.388265 0.039491
vt 0.122718 0.220215
vt 0.475972 0.157253
vt 0.483891 0.190240
vt 0.746586 0.596222
vt 0.725394 0.590558
vt 0.753979 0.630520
vt 0.167271 0.580475
vt 0.522655 0.268991
vt 0.349591 0.551123
vt 0.163875 0.637382
vt 0.547608 0.185325
vt 0.678990 0.330356
vt 0.711651 0.238160
vt 0.615383 0.161104
vt 0.545469 0.242807
vt 0.514017 0.141983
vt 0.755728 0.273959
vt 0.749698 0.254422
vt 0.676082 0.624443
vt 0.672576 0.644138
vt 0.617166 0.569848
vt 0.676339 0.164204
vt 0.761447 0.269184
vt 0.562044 0.474255
vt 0.676901 0.453072
vt 0.615197 0.535878
vt 0.880048 0.368016
vt 0.669900 0.111700
vt 0.516316 0.065655
vt 0.757472 0.185263
vt 0.806230 0.146550
vt 0.953798 0.279355
vt 0.314154 0.586155
vt 0.877061 0.180187
vt 0.522371 0.519115
vt 0.554866 0.515719
vt 0.678600 0.151900
vt 0.725014 0.203922
vt 0.520486 0.549125
vt 0.522213 0.567951
vt 0.137715 0.623180
vt 0.564520 0.515404
s 1
usemtl 12140_Skull_v3
f 23/1/1 2/2/2 6/3/3
f 6/3/3 5/4/4 23/1/1
f 5/4/4 3/5/5 23/1/1
f 19/6/6 23/1/1 3/5/5
f 11/7/7 3/5/5 5/4/4
f 5/4/4 9/8/8 11/7/7
f 13/9/9 14/10/10 12/11/11
f 9/12/8 13/9/9 11/13/7
f 7/14/12 32/15/13 20/16/14
f 4/17/15 12/11/11 18/18/16
f 14/10/10 18/18/16 12/11/11
f 18/18/16 20/16/14 21/19/17
f 18/18/16 21/19/17 22/20/18
f 22/20/18 21/19/17 23/21/1
f 21/19/17 17/22/19 25/23/20
f 29/24/21 24/25/22 30/26/23
f 29/24/21 25/27/20 24/25/22
f 12/11/11 26/28/24 13/9/9
f 11/13/7 26/28/24 10/29/25
f 26/30/24 27/31/26 10/32/25
f 28/33/27 1/34/28 2/2/2
f 1/34/28 6/3/3 2/2/2
f 36/35/29 28/33/27 31/36/30
f 31/36/30 28/33/27 2/2/2
f 1/37/28 32/15/13 7/14/12
f 15/38/31 34/39/32 47/40/33
f 34/39/32 16/41/34 36/42/29
f 34/43/32 36/35/29 33/44/35
f 32/15/13 1/37/28 35/45/36
f 33/44/35 30/26/23 65/46/37
f 52/47/38 39/48/39 38/49/40
f 39/48/39 52/47/38 49/50/41
f 49/50/41 40/51/42 39/48/39
f 38/49/40 39/48/39 41/52/43
f 39/53/39 42/54/44 43/55/45
f 42/56/44 39/48/39 40/51/42
f 49/50/41 44/57/46 40/51/42
f 40/58/42 46/59/47 42/54/44
f 42/54/44 51/60/48 41/61/43
f 48/62/49 47/40/33 61/63/50
f 49/50/41 45/64/51 44/57/46
f 51/60/48 50/65/52 53/66/53
f 180/67/54 181/68/55 178/69/56 182/70/57
f 54/71/58 53/72/53 57/73/59
f 54/74/58 55/75/60 51/60/48
f 57/76/59 56/77/61 54/74/58
f 48/62/49 56/77/61 24/78/22
f 58/79/62 46/80/47 44/57/46
f 45/64/51 58/79/62 44/57/46
f 60/81/63 65/46/37 57/73/59
f 65/46/37 60/81/63 59/82/64
f 55/75/60 64/83/65 41/61/43
f 47/40/33 63/84/66 61/63/50
f 62/85/67 63/84/66 34/39/32
f 64/86/65 63/87/66 62/88/67
f 55/75/60 61/63/50 64/83/65
f 61/89/50 63/87/66 64/86/65
f 66/90/68 67/91/69 68/92/70
f 75/93/71 74/94/72 76/95/73
f 75/93/71 77/96/74 74/94/72
f 84/97/75 78/98/76 79/99/77
f 81/100/78 78/98/76 80/101/79
f 81/102/78 80/103/79 82/104/80
f 82/104/80 79/105/77 81/102/78
f 85/106/81 86/107/82 87/108/83
f 88/109/84 85/110/81 87/111/83
f 90/112/85 94/113/86 89/114/87
f 90/112/85 89/114/87 92/115/88
f 89/114/87 91/116/89 92/115/88
f 92/117/88 91/118/89 93/119/90
f 92/117/88 93/119/90 90/120/85
f 90/120/85 93/119/90 94/121/86
f 96/122/91 97/123/92 98/124/93
f 100/125/94 97/126/92 99/127/95
f 100/125/94 99/127/95 95/128/96
f 95/129/96 99/130/95 96/122/91
f 101/131/97 102/132/98 103/133/99
f 106/134/100 104/135/101 107/136/102
f 107/137/102 105/138/103 106/139/100
f 108/140/104 109/141/105 110/142/106
f 115/143/107 116/144/108 117/145/109
f 117/145/109 116/144/108 114/146/110
f 119/147/111 118/148/112 120/149/113
f 118/150/112 121/151/114 120/152/113
f 134/153/115 122/154/116 127/155/117
f 134/153/115 127/155/117 123/156/118
f 124/157/119 123/158/118 125/159/120
f 124/157/119 134/160/115 123/158/118
f 127/161/117 126/162/121 125/159/120
f 133/163/122 128/164/123 129/165/124
f 128/166/123 131/167/125 129/168/124
f 128/164/123 133/163/122 132/169/126
f 96/170/91 99/171/95 97/172/92
f 113/173/127 115/174/107 112/175/128
f 134/176/115 124/177/119 126/178/121
f 69/179/129 73/180/130 71/181/131
f 77/182/74 76/183/73 74/184/72
f 89/185/87 94/186/86 91/187/89
f 126/178/121 122/188/116 134/176/115
f 137/189/132 135/190/133 136/191/134
f 144/192/135 142/193/136 143/194/137
f 144/192/135 143/194/137 141/195/138
f 148/196/139 147/197/140 146/198/141
f 148/199/139 146/200/141 145/201/142
f 150/202/143 149/203/144 151/204/145
f 150/205/143 151/206/145 152/207/146
f 153/208/147 151/206/145 154/209/148
f 155/210/149 153/211/147 154/212/148
f 156/213/150 155/210/149 149/203/144
f 158/214/151 163/215/152 157/216/153
f 160/217/154 157/218/153 159/219/155
f 160/217/154 159/219/155 161/220/156
f 163/215/152 161/221/156 164/222/157
f 163/215/152 164/222/157 157/216/153
f 166/223/158 167/224/159 165/225/160
f 164/226/157 162/227/161 157/228/153
f 154/229/148 151/230/145 149/231/144
f 162/227/161 159/232/155 157/228/153
f 170/233/162 168/234/163 171/235/164
f 169/236/165 170/237/162 171/238/164
f 177/239/166 176/240/167 175/241/168
f 181/242/55 179/243/169 178/244/56
f 184/245/170 183/246/171 190/247/172
f 185/248/173 184/249/170 186/250/174
f 187/251/175 185/248/173 186/250/174
f 188/252/176 187/251/175 186/250/174
f 187/253/175 188/254/176 189/255/177
f 189/255/177 188/256/176 190/247/172
f 191/257/178 192/258/179 193/259/180
f 194/260/181 191/257/178 193/259/180
f 196/261/182 195/262/183 193/263/180
f 197/264/184 195/262/183 196/261/182
f 200/265/185 199/266/186 198/267/187
f 191/268/178 194/269/181 197/270/184
f 194/269/181 195/271/183 197/270/184
f 180/272/54 182/273/57 179/274/169
f 187/275/175 183/276/171 185/277/173
f 189/278/177 183/276/171 187/275/175
f 203/279/188 201/280/189 206/281/190
f 205/282/191 206/281/190 201/280/189
f 207/283/192 203/279/188 219/284/193
f 224/285/194 202/286/195 209/287/196
f 213/288/197 214/289/198 212/290/199
f 207/283/192 224/285/194 209/287/196
f 222/291/200 211/292/201 202/286/195
f 224/285/194 225/293/202 234/294/203
f 222/291/200 236/295/204 226/296/205
f 226/296/205 223/297/206 222/291/200
f 223/297/206 227/298/207 228/299/208
f 232/300/209 220/301/210 233/302/211
f 230/303/212 231/304/213 253/305/214
f 241/306/215 206/281/190 205/282/191
f 232/307/209 234/308/203 225/309/202
f 237/310/216 226/311/205 236/312/204
f 226/311/205 237/310/216 227/313/207
f 227/313/207 237/310/216 238/314/217
f 235/315/218 224/316/194 234/308/203
f 232/307/209 239/317/219 234/308/203
f 240/318/220 233/319/211 238/314/217
f 234/308/203 239/317/219 235/315/218
f 232/307/209 240/318/220 239/317/219
f 239/317/219 236/312/204 235/315/218
f 206/281/190 241/306/215 250/320/221
f 228/299/208 242/321/222 213/288/197
f 242/321/222 216/322/223 246/323/224
f 216/322/223 208/324/225 246/323/224
f 214/289/198 243/325/226 273/326/227
f 245/327/228 213/288/197 242/321/222
f 213/288/197 245/327/228 214/289/198
f 246/328/224 247/329/229 315/330/230
f 250/320/221 251/331/231 252/332/232
f 251/331/231 254/333/233 255/334/234
f 256/335/235 255/334/234 254/333/233
f 388/336/236 257/337/237 256/335/235
f 257/337/237 388/336/236 259/338/238
f 388/336/236 260/339/239 259/338/238
f 263/340/240 266/341/241 253/305/214
f 252/332/232 255/334/234 262/342/242
f 261/343/243 265/344/244 264/345/245
f 248/346/246 253/305/214 270/347/247
f 267/348/248 261/343/243 389/349/249
f 259/338/238 389/349/249 261/343/243
f 267/348/248 268/350/250 261/343/243
f 265/344/244 290/351/251 270/347/247
f 312/352/252 270/347/247 293/353/253
f 212/290/199 273/326/227 277/354/254
f 274/355/255 273/326/227 275/356/256
f 276/357/257 273/326/227 274/355/255
f 245/327/228 280/358/258 282/359/259
f 243/325/226 279/360/260 274/355/255
f 282/359/259 285/361/261 283/362/262
f 285/361/261 422/363/263 284/364/264
f 284/364/264 287/365/265 276/357/257
f 287/365/265 284/364/264 422/363/263
f 417/366/266 287/365/265 422/363/263
f 406/367/267 278/368/268 286/369/269
f 287/365/265 406/367/267 286/369/269
f 299/370/270 281/371/271 313/372/272
f 281/371/271 299/370/270 282/373/259
f 285/374/261 282/373/259 288/375/273
f 300/376/274 289/377/275 288/375/273
f 312/352/252 293/353/253 291/378/276
f 422/379/263 288/375/273 289/377/275
f 293/353/253 290/351/251 292/380/277
f 292/380/277 290/351/251 272/381/278
f 272/381/278 271/382/279 302/383/280
f 295/384/281 302/383/280 294/385/282
f 295/386/281 294/387/282 296/388/283
f 298/389/284 295/386/281 297/390/285
f 297/390/285 296/388/283 426/391/286
f 300/376/274 313/372/272 301/392/287
f 301/392/287 331/393/288 289/377/275
f 331/393/288 303/394/289 423/395/290
f 303/396/289 295/386/281 298/389/284
f 332/397/291 310/398/292 307/399/293
f 306/400/294 229/401/295 308/402/296
f 311/403/297 332/404/291 211/292/201
f 213/288/197 212/290/199 311/403/297
f 306/400/294 324/405/298 310/398/292
f 248/346/246 312/352/252 314/406/299
f 318/407/300 248/346/246 314/406/299
f 313/372/272 314/406/299 312/352/252
f 317/408/301 215/409/302 218/410/303
f 215/411/302 317/412/301 316/413/304
f 315/330/230 317/414/301 246/328/224
f 281/371/271 317/408/301 218/410/303
f 280/358/258 317/415/301 281/416/271
f 280/358/258 246/323/224 317/415/301
f 318/417/300 247/329/229 316/413/304
f 306/400/294 308/402/296 321/418/305
f 325/419/306 332/397/291 307/399/293
f 320/420/307 306/400/294 321/418/305
f 321/418/305 322/421/308 329/422/309
f 307/399/293 320/420/307 329/422/309
f 309/423/310 319/424/311 322/421/308
f 321/418/305 308/402/296 322/421/308
f 320/420/307 307/399/293 324/405/298
f 307/399/293 323/425/312 325/419/306
f 319/426/311 328/427/313 323/428/312
f 319/426/311 309/429/310 328/427/313
f 326/430/314 327/431/315 322/421/308
f 327/431/315 329/422/309 322/421/308
f 323/428/312 452/432/316 319/426/311
f 330/433/317 319/426/311 452/432/316
f 330/433/317 326/434/314 319/426/311
f 331/393/288 423/395/290 289/377/275
f 453/435/318 454/436/319 309/423/310
f 323/425/312 333/437/320 452/438/316
f 337/439/321 334/440/322 335/441/323
f 205/442/191 201/280/189 337/439/321
f 350/443/324 372/444/325 345/445/326
f 334/440/322 338/446/327 339/447/328
f 351/448/329 341/449/330 334/440/322
f 435/450/331 342/451/332 344/452/333
f 345/445/326 346/453/334 339/447/328
f 345/445/326 443/454/335 346/453/334
f 339/447/328 346/453/334 347/455/336
f 345/445/326 338/446/327 350/443/324
f 334/440/322 341/449/330 338/446/327
f 354/456/337 370/457/338 356/458/339
f 372/444/325 350/443/324 357/459/340
f 368/460/341 350/443/324 341/449/330
f 361/461/342 360/462/343 354/456/337
f 344/452/333 438/463/344 435/450/331
f 353/464/345 352/465/346 438/463/344
f 205/442/191 337/439/321 379/466/347
f 241/467/215 205/442/191 379/466/347
f 359/468/348 368/469/341 351/470/329
f 364/471/349 352/472/346 366/473/350
f 366/473/350 353/474/345 360/475/343
f 353/474/345 366/473/350 352/472/346
f 365/476/351 356/477/339 357/478/340
f 367/479/352 366/473/350 360/475/343
f 358/480/353 369/481/354 365/476/351
f 379/466/347 336/482/355 382/483/356
f 343/484/357 370/457/338 344/452/333
f 372/444/325 376/485/358 371/486/359
f 373/487/360 375/488/361 343/484/357
f 342/451/332 401/489/362 375/488/361
f 374/490/363 375/488/361 410/491/364
f 377/492/365 371/493/359 441/494/366
f 386/495/367 384/496/368 387/497/369
f 388/498/236 384/496/368 260/499/239
f 260/499/239 390/500/370 391/501/371
f 259/502/238 260/499/239 389/503/249
f 384/496/368 383/504/372 390/500/370
f 390/500/370 381/505/373 396/506/374
f 389/503/249 260/499/239 391/501/371
f 269/507/375 391/501/371 393/508/376
f 393/508/376 271/509/279 269/507/375
f 395/510/377 394/511/378 396/506/374
f 394/511/378 395/510/377 398/512/379
f 394/511/378 400/513/380 397/514/381
f 402/515/382 342/451/332 403/516/383
f 403/516/383 342/451/332 404/517/384
f 404/517/384 342/451/332 435/450/331
f 405/518/385 435/450/331 453/519/318
f 403/516/383 407/520/386 402/515/382
f 403/516/383 404/517/384 408/521/387
f 404/517/384 406/367/267 408/521/387
f 407/520/386 409/522/388 402/515/382
f 410/491/364 412/523/389 444/524/390
f 410/491/364 413/525/391 412/523/389
f 409/522/388 414/526/392 402/515/382
f 414/526/392 413/525/391 401/489/362
f 416/527/393 409/522/388 407/520/386
f 417/528/266 408/521/387 406/367/267
f 407/520/386 417/528/266 416/527/393
f 422/529/263 415/530/394 416/527/393
f 416/531/393 418/532/395 414/533/392
f 418/532/395 429/534/396 428/535/397
f 419/536/398 397/514/381 400/513/380
f 421/537/399 400/513/380 420/538/400
f 400/513/380 421/537/399 419/536/398
f 289/539/275 418/532/395 422/540/263
f 419/536/398 399/541/401 397/514/381
f 271/509/279 399/541/401 424/542/402
f 296/388/283 294/387/282 425/543/403
f 425/543/403 427/544/404 296/388/283
f 298/389/284 427/544/404 304/545/405
f 296/388/283 427/544/404 426/391/286
f 420/538/400 428/535/397 429/534/396
f 429/534/396 418/532/395 423/546/290
f 429/534/396 423/546/290 430/547/406
f 421/537/399 420/538/400 430/547/406
f 431/548/407 430/547/406 423/546/290
f 430/547/406 431/548/407 421/537/399
f 424/542/402 431/548/407 432/549/408
f 423/546/290 304/550/405 432/549/408
f 432/549/408 425/551/403 424/542/402
f 435/552/331 436/553/409 434/554/410
f 437/555/411 438/556/344 433/557/412
f 435/552/331 438/556/344 436/553/409
f 440/558/413 412/559/389 400/513/380
f 412/559/389 440/558/413 411/560/414
f 440/558/413 378/561/415 439/562/416
f 363/563/417 439/564/416 442/565/418
f 442/565/418 377/492/365 363/563/417
f 442/565/418 439/564/416 441/566/366
f 378/567/415 441/494/366 439/568/416
f 377/492/365 442/565/418 371/493/359
f 345/445/326 371/486/359 443/454/335
f 410/491/364 444/524/390 441/569/366
f 442/570/418 444/571/390 443/454/335
f 434/554/410 436/553/409 445/572/419
f 433/557/412 332/573/291 325/574/306
f 433/557/412 325/574/306 437/555/411
f 452/438/316 451/575/420 437/555/411
f 437/555/411 451/575/420 447/576/421
f 452/577/316 446/578/422 330/579/317
f 449/580/423 327/431/315 326/430/314
f 449/580/423 451/575/420 327/431/315
f 333/437/320 451/575/420 452/438/316
f 387/497/369 256/581/235 385/582/424
f 388/498/236 256/581/235 387/497/369
f 277/354/254 406/367/267 405/518/385
f 2/2/2 23/1/1 29/24/21
f 5/4/4 6/3/3 7/583/12
f 8/584/425 20/16/14 9/12/8
f 5/4/4 8/585/425 9/8/8
f 8/584/425 5/586/4 7/14/12
f 11/7/7 4/587/15 3/5/5
f 27/31/26 4/587/15 11/7/7
f 27/31/26 11/7/7 10/32/25
f 8/584/425 7/14/12 20/16/14
f 14/10/10 13/9/9 20/16/14
f 9/12/8 20/16/14 13/9/9
f 16/41/34 15/38/31 17/22/19
f 17/22/19 35/45/36 16/41/34
f 35/45/36 17/22/19 32/15/13
f 12/588/11 4/587/15 27/31/26
f 19/6/6 3/5/5 4/587/15
f 18/18/16 19/589/6 4/17/15
f 21/19/17 20/16/14 32/15/13
f 22/590/18 23/1/1 19/6/6
f 22/20/18 19/589/6 18/18/16
f 18/18/16 14/10/10 20/16/14
f 29/24/21 23/1/1 25/27/20
f 21/19/17 32/15/13 17/22/19
f 25/23/20 23/591/1 21/19/17
f 17/22/19 24/78/22 25/23/20
f 15/38/31 24/78/22 17/22/19
f 11/13/7 13/9/9 26/28/24
f 26/28/24 12/11/11 27/592/26
f 30/26/23 2/2/2 29/24/21
f 2/2/2 30/26/23 31/36/30
f 36/35/29 31/36/30 30/26/23
f 7/14/12 6/593/3 1/37/28
f 33/44/35 36/35/29 30/26/23
f 15/38/31 16/41/34 34/39/32
f 35/45/36 36/42/29 16/41/34
f 28/33/27 36/35/29 1/34/28
f 1/594/28 36/42/29 35/45/36
f 30/26/23 24/25/22 65/46/37
f 57/73/59 37/595/426 60/81/63
f 64/86/65 37/595/426 38/49/40
f 57/73/59 52/47/38 38/49/40
f 57/73/59 38/49/40 37/595/426
f 38/49/40 41/52/43 64/596/65
f 39/48/39 43/597/45 41/52/43
f 40/51/42 44/57/46 46/80/47
f 42/54/44 41/61/43 43/55/45
f 45/598/51 51/60/48 46/59/47
f 42/54/44 46/59/47 51/60/48
f 48/62/49 15/38/31 47/40/33
f 55/75/60 48/62/49 61/63/50
f 41/61/43 51/60/48 55/75/60
f 49/599/41 50/65/52 45/598/51
f 50/65/52 49/599/41 52/600/38
f 51/60/48 45/598/51 50/65/52
f 57/73/59 53/72/53 52/47/38
f 50/65/52 52/600/38 53/66/53
f 53/66/53 54/74/58 51/60/48
f 48/62/49 55/75/60 54/74/58
f 54/74/58 56/77/61 48/62/49
f 65/46/37 24/25/22 56/601/61
f 48/62/49 24/78/22 15/38/31
f 57/73/59 65/46/37 56/601/61
f 45/598/51 46/59/47 58/602/62
f 37/595/426 64/86/65 62/88/67
f 33/44/35 65/46/37 59/82/64
f 33/44/35 59/82/64 62/88/67
f 62/88/67 59/82/64 37/595/426
f 60/81/63 37/595/426 59/82/64
f 47/40/33 34/39/32 63/84/66
f 33/44/35 62/88/67 34/43/32
f 66/90/68 68/92/70 67/603/69
f 70/604/427 69/605/129 71/606/131
f 70/604/427 71/606/131 72/607/428
f 73/608/130 72/609/428 71/610/131
f 70/611/427 72/609/428 73/608/130
f 70/611/427 73/608/130 69/612/129
f 75/613/71 76/614/73 77/615/74
f 81/100/78 79/99/77 78/98/76
f 82/104/80 80/103/79 83/616/429
f 79/105/77 82/104/80 83/616/429
f 79/105/77 83/616/429 84/617/75
f 88/618/84 86/107/82 85/619/81
f 88/618/84 87/108/83 86/107/82
f 93/119/90 91/118/89 94/121/86
f 98/124/93 95/129/96 96/122/91
f 98/620/93 97/126/92 100/125/94
f 98/620/93 100/125/94 95/128/96
f 103/133/99 102/621/98 101/131/97
f 105/622/103 104/135/101 106/134/100
f 104/623/101 105/138/103 107/137/102
f 109/141/105 108/140/104 111/624/430
f 111/625/430 110/626/106 109/627/105
f 113/628/127 112/629/128 117/630/109
f 114/631/110 113/628/127 117/630/109
f 116/632/108 115/633/107 113/628/127
f 116/632/108 113/628/127 114/631/110
f 112/634/128 115/143/107 117/145/109
f 120/149/113 121/635/114 119/147/111
f 126/162/121 124/157/119 125/159/120
f 127/161/117 125/159/120 123/158/118
f 127/155/117 122/154/116 126/636/121
f 129/165/124 130/637/431 133/163/122
f 131/638/125 130/637/431 129/165/124
f 131/167/125 132/639/126 130/640/431
f 128/166/123 132/639/126 131/167/125
f 78/641/76 84/642/75 80/643/79
f 80/643/79 84/642/75 83/644/429
f 108/645/104 110/646/106 111/647/430
f 121/648/114 118/649/112 119/650/111
f 130/651/431 132/652/126 133/653/122
f 135/654/133 137/189/132 136/191/134
f 138/655/432 140/656/433 139/657/434
f 138/658/432 139/659/434 140/660/433
f 143/194/137 142/193/136 141/661/138
f 144/662/135 141/663/138 142/664/136
f 147/665/140 148/199/139 145/201/142
f 147/197/140 145/666/142 146/198/141
f 150/202/143 156/213/150 149/203/144
f 152/207/146 151/206/145 153/208/147
f 153/208/147 156/667/150 152/207/146
f 149/203/144 155/210/149 154/212/148
f 158/668/151 157/218/153 160/217/154
f 161/220/156 159/219/155 162/669/161
f 161/220/156 162/669/161 164/670/157
f 167/671/159 166/672/158 165/673/160
f 160/674/154 163/215/152 158/214/151
f 160/217/154 161/220/156 163/675/152
f 156/667/150 150/205/143 152/207/146
f 156/213/150 153/676/147 155/210/149
f 169/677/165 168/234/163 170/233/162
f 171/238/164 168/678/163 169/236/165
f 172/679/435 174/680/436 173/681/437
f 174/682/436 172/683/435 173/684/437
f 175/241/168 176/685/167 177/239/166
f 179/243/169 182/686/57 178/244/56
f 181/242/55 180/687/54 179/243/169
f 196/261/182 192/688/179 191/689/178 197/264/184
f 183/246/171 189/255/177 190/247/172
f 184/245/170 185/690/173 183/246/171
f 195/691/183 194/260/181 193/259/180
f 200/692/185 198/693/187 199/694/186
f 196/261/182 193/263/180 192/688/179
f 186/250/174 184/249/170 190/695/172
f 190/695/172 188/252/176 186/250/174
f 203/279/188 202/286/195 201/280/189
f 206/281/190 204/696/438 203/279/188
f 208/324/225 216/322/223 221/697/439
f 207/283/192 221/697/439 225/293/202
f 203/279/188 204/696/438 219/284/193
f 207/283/192 219/284/193 208/324/225
f 207/283/192 208/324/225 221/697/439
f 207/283/192 209/287/196 203/279/188
f 203/279/188 209/287/196 202/286/195
f 332/404/291 210/698/440 211/292/201
f 311/403/297 211/292/201 223/297/206
f 228/299/208 213/288/197 311/403/297
f 273/326/227 212/290/199 214/289/198
f 208/324/225 219/284/193 217/699/441
f 208/324/225 217/699/441 218/410/303
f 218/410/303 217/699/441 219/284/193
f 218/410/303 219/284/193 230/303/212
f 219/284/193 204/696/438 230/303/212
f 216/322/223 220/301/210 221/697/439
f 207/283/192 225/293/202 224/285/194
f 223/297/206 211/292/201 222/291/200
f 223/297/206 228/299/208 311/403/297
f 228/299/208 216/322/223 242/321/222
f 222/291/200 202/286/195 224/285/194
f 232/300/209 221/697/439 220/301/210
f 222/291/200 224/285/194 236/295/204
f 227/298/207 238/700/217 228/299/208
f 216/322/223 228/299/208 238/700/217
f 233/302/211 216/322/223 238/700/217
f 233/302/211 220/301/210 216/322/223
f 433/701/412 210/698/440 332/404/291
f 231/304/213 230/303/212 204/696/438
f 230/303/212 253/305/214 318/702/300
f 204/696/438 263/340/240 231/304/213
f 250/320/221 204/696/438 206/281/190
f 221/703/439 232/307/209 225/309/202
f 236/312/204 224/316/194 235/315/218
f 223/704/206 226/311/205 227/313/207
f 240/318/220 232/307/209 233/319/211
f 238/314/217 237/310/216 239/317/219
f 240/318/220 238/314/217 239/317/219
f 237/310/216 236/312/204 239/317/219
f 250/320/221 263/340/240 204/696/438
f 249/705/442 251/331/231 241/306/215
f 208/324/225 215/409/302 246/323/224
f 243/325/226 214/289/198 245/327/228
f 244/706/443 242/321/222 246/323/224
f 245/327/228 242/321/222 244/706/443
f 244/706/443 280/358/258 245/327/228
f 246/328/224 215/411/302 247/329/229
f 316/413/304 247/329/229 215/411/302
f 315/330/230 247/329/229 253/707/214
f 318/417/300 253/707/214 247/329/229
f 253/707/214 248/708/246 315/330/230
f 250/320/221 241/306/215 251/331/231
f 252/332/232 263/340/240 250/320/221
f 263/340/240 253/305/214 231/304/213
f 251/331/231 249/705/442 254/333/233
f 257/337/237 262/342/242 255/334/234
f 255/334/234 252/332/232 251/331/231
f 257/337/237 255/334/234 256/335/235
f 258/709/444 264/345/245 262/342/242
f 262/342/242 257/337/237 258/709/444
f 258/709/444 257/337/237 259/338/238
f 261/343/243 264/345/245 258/709/444
f 259/338/238 261/343/243 258/709/444
f 252/332/232 262/342/242 263/340/240
f 262/342/242 264/345/245 263/340/240
f 266/341/241 263/340/240 264/345/245
f 264/345/245 265/344/244 266/341/241
f 269/710/375 267/348/248 389/349/249
f 261/343/243 268/350/250 265/344/244
f 268/350/250 269/710/375 271/382/279
f 269/710/375 268/350/250 267/348/248
f 266/341/241 265/344/244 270/347/247
f 270/347/247 253/305/214 266/341/241
f 265/344/244 268/350/250 290/351/251
f 293/353/253 270/347/247 290/351/251
f 312/352/252 248/346/246 270/347/247
f 268/350/250 272/381/278 290/351/251
f 273/326/227 243/325/226 275/356/256
f 277/354/254 229/711/295 212/290/199
f 277/354/254 453/519/318 229/711/295
f 274/355/255 275/356/256 243/325/226
f 286/369/269 273/326/227 276/357/257
f 273/326/227 286/369/269 278/368/268
f 278/368/268 277/354/254 273/326/227
f 278/368/268 406/367/267 277/354/254
f 284/364/264 276/357/257 279/360/260
f 279/360/260 276/357/257 274/355/255
f 280/358/258 244/706/443 246/323/224
f 281/371/271 314/406/299 313/372/272
f 281/371/271 230/303/212 314/406/299
f 280/358/258 281/416/271 282/359/259
f 243/325/226 245/327/228 282/359/259
f 243/325/226 283/362/262 279/360/260
f 282/359/259 283/362/262 243/325/226
f 284/364/264 279/360/260 283/362/262
f 284/364/264 283/362/262 285/361/261
f 285/361/261 288/712/273 422/363/263
f 287/365/265 286/369/269 276/357/257
f 288/375/273 282/373/259 299/370/270
f 288/375/273 299/370/270 300/376/274
f 292/380/277 291/378/276 293/353/253
f 272/381/278 268/350/250 271/382/279
f 272/381/278 302/383/280 292/380/277
f 302/383/280 271/382/279 294/385/282
f 295/386/281 296/388/283 297/390/285
f 304/545/405 303/396/289 298/389/284
f 297/390/285 426/391/286 298/389/284
f 301/392/287 313/372/272 291/378/276
f 299/370/270 313/372/272 300/376/274
f 300/376/274 301/392/287 289/377/275
f 292/380/277 301/392/287 291/378/276
f 301/392/287 292/380/277 302/383/280
f 331/393/288 301/392/287 302/383/280
f 305/713/445 302/383/280 295/384/281
f 331/393/288 305/713/445 303/394/289
f 295/384/281 303/394/289 305/713/445
f 331/393/288 302/383/280 305/713/445
f 229/711/295 306/714/294 212/290/199
f 229/401/295 309/423/310 308/402/296
f 309/423/310 229/401/295 453/435/318
f 332/404/291 311/403/297 310/715/292
f 310/715/292 311/403/297 212/290/199
f 212/290/199 306/714/294 310/715/292
f 291/378/276 313/372/272 312/352/252
f 230/303/212 318/702/300 314/406/299
f 316/716/304 315/330/230 248/708/246
f 248/708/246 318/717/300 316/716/304
f 218/410/303 215/409/302 208/324/225
f 315/718/230 316/413/304 317/412/301
f 281/371/271 218/410/303 230/303/212
f 320/420/307 324/405/298 306/400/294
f 310/398/292 324/405/298 307/399/293
f 329/422/309 320/420/307 321/418/305
f 326/430/314 322/421/308 319/424/311
f 308/402/296 309/423/310 322/421/308
f 323/428/312 328/427/313 325/719/306
f 329/422/309 451/575/420 333/437/320
f 307/399/293 333/437/320 323/425/312
f 333/437/320 307/399/293 329/422/309
f 211/292/201 340/720/446 202/286/195
f 385/721/424 256/335/235 254/333/233
f 453/519/318 277/354/254 405/518/385
f 454/722/319 328/427/313 309/429/310
f 327/431/315 451/575/420 329/422/309
f 201/280/189 202/286/195 340/720/446
f 201/280/189 351/448/329 337/439/321
f 201/280/189 340/720/446 351/448/329
f 334/440/322 337/439/321 351/448/329
f 339/447/328 335/441/323 334/440/322
f 336/482/355 337/439/321 335/441/323
f 382/483/356 336/482/355 335/441/323
f 345/445/326 339/447/328 338/446/327
f 339/447/328 347/455/336 335/441/323
f 352/465/346 211/292/201 210/698/440
f 355/723/447 344/452/333 354/456/337
f 373/487/360 344/452/333 342/451/332
f 343/484/357 344/452/333 373/487/360
f 372/444/325 371/486/359 345/445/326
f 347/455/336 348/724/448 335/441/323
f 347/455/336 346/453/334 443/454/335
f 362/725/449 347/455/336 443/454/335
f 351/448/329 340/720/446 352/465/346
f 370/457/338 349/726/450 356/458/339
f 372/444/325 356/458/339 349/726/450
f 341/449/330 350/443/324 338/446/327
f 368/460/341 341/449/330 351/448/329
f 352/465/346 359/727/348 351/448/329
f 355/723/447 360/462/343 353/464/345
f 355/723/447 354/456/337 360/462/343
f 356/458/339 361/461/342 354/456/337
f 372/444/325 357/459/340 356/458/339
f 435/450/331 434/728/410 453/519/318
f 438/463/344 352/465/346 210/698/440
f 210/698/440 433/701/412 438/463/344
f 362/725/449 363/729/417 347/455/336
f 348/724/448 347/455/336 363/729/417
f 439/730/416 363/729/417 362/725/449
f 335/441/323 348/724/448 382/483/356
f 379/466/347 337/439/321 336/482/355
f 358/480/353 365/476/351 357/478/340
f 357/478/340 350/731/324 358/480/353
f 368/469/341 358/480/353 350/732/324
f 352/472/346 364/471/349 359/468/348
f 367/479/352 360/475/343 361/733/342
f 365/476/351 361/733/342 356/477/339
f 361/733/342 365/476/351 367/479/352
f 368/469/341 369/481/354 358/480/353
f 369/481/354 359/468/348 364/471/349
f 369/481/354 364/471/349 366/473/350
f 369/481/354 367/479/352 365/476/351
f 359/468/348 369/481/354 368/469/341
f 366/473/350 367/479/352 369/481/354
f 370/457/338 354/456/337 344/452/333
f 372/444/325 349/726/450 376/485/358
f 373/487/360 342/451/332 375/488/361
f 370/457/338 343/484/357 349/726/450
f 375/488/361 349/726/450 343/484/357
f 376/485/358 349/726/450 374/490/363
f 374/490/363 349/726/450 375/488/361
f 376/485/358 374/490/363 410/491/364
f 376/485/358 441/734/366 371/486/359
f 377/735/365 378/561/415 363/729/417
f 385/582/424 249/736/442 379/466/347
f 382/483/356 380/737/451 379/466/347
f 381/505/373 380/737/451 382/483/356
f 382/483/356 348/724/448 381/505/373
f 398/512/379 381/505/373 348/724/448
f 348/724/448 363/729/417 398/512/379
f 379/466/347 380/737/451 385/582/424
f 254/738/233 249/736/442 385/582/424
f 383/504/372 386/495/367 380/737/451
f 386/495/367 383/504/372 384/496/368
f 380/737/451 386/495/367 385/582/424
f 384/496/368 388/498/236 387/497/369
f 385/582/424 386/495/367 387/497/369
f 260/499/239 384/496/368 390/500/370
f 383/504/372 380/737/451 381/505/373
f 381/505/373 390/500/370 383/504/372
f 396/506/374 391/501/371 390/500/370
f 381/505/373 398/512/379 395/510/377
f 381/505/373 395/510/377 396/506/374
f 378/561/415 398/512/379 363/729/417
f 391/501/371 396/506/374 392/739/452
f 389/503/249 391/501/371 269/507/375
f 391/501/371 392/739/452 393/508/376
f 393/508/376 399/541/401 271/509/279
f 393/508/376 392/739/452 399/541/401
f 396/506/374 399/541/401 392/739/452
f 397/514/381 396/506/374 394/511/378
f 400/513/380 398/512/379 378/561/415
f 400/513/380 394/511/378 398/512/379
f 397/514/381 399/541/401 396/506/374
f 401/489/362 342/451/332 402/515/382
f 435/450/331 405/518/385 404/517/384
f 408/521/387 407/520/386 403/516/383
f 405/518/385 406/367/267 404/517/384
f 410/491/364 375/488/361 413/525/391
f 441/569/366 376/485/358 410/491/364
f 444/524/390 412/523/389 411/740/414
f 402/515/382 414/526/392 401/489/362
f 413/525/391 375/488/361 401/489/362
f 409/522/388 416/527/393 414/526/392
f 407/520/386 408/521/387 417/528/266
f 417/528/266 422/529/263 416/527/393
f 406/367/267 287/741/265 417/528/266
f 428/535/397 412/559/389 414/533/392
f 412/559/389 413/742/391 414/533/392
f 414/533/392 418/532/395 428/535/397
f 418/532/395 416/531/393 415/743/394
f 418/532/395 415/743/394 422/540/263
f 419/536/398 431/548/407 399/541/401
f 431/548/407 419/536/398 421/537/399
f 424/542/402 294/744/282 271/509/279
f 424/542/402 399/541/401 431/548/407
f 294/744/282 424/542/402 425/551/403
f 427/544/404 432/745/408 304/545/405
f 420/538/400 429/534/396 430/547/406
f 303/746/289 304/550/405 423/546/290
f 432/549/408 431/548/407 423/546/290
f 432/745/408 427/544/404 425/543/403
f 446/747/422 454/748/319 434/554/410
f 355/723/447 353/464/345 438/463/344
f 437/555/411 447/576/421 438/556/344
f 344/452/333 355/723/447 438/463/344
f 436/553/409 438/556/344 447/576/421
f 378/567/415 377/492/365 441/494/366
f 440/558/413 400/513/380 378/561/415
f 412/559/389 420/538/400 400/513/380
f 420/538/400 412/559/389 428/535/397
f 411/560/414 439/730/416 362/725/449
f 411/560/414 440/558/413 439/730/416
f 442/570/418 443/454/335 371/486/359
f 442/749/418 441/569/366 444/524/390
f 411/560/414 362/725/449 443/454/335
f 444/750/390 411/560/414 443/454/335
f 434/554/410 445/572/419 446/747/422
f 445/572/419 436/553/409 448/751/453
f 448/751/453 436/553/409 450/752/454
f 451/575/420 448/751/453 450/752/454
f 448/751/453 451/575/420 449/580/423
f 446/747/422 445/572/419 449/580/423
f 448/751/453 449/580/423 445/572/419
f 447/576/421 450/752/454 436/553/409
f 437/555/411 325/574/306 452/438/316
f 450/752/454 447/576/421 451/575/420
f 452/577/316 325/719/306 446/578/422
f 446/578/422 325/719/306 328/427/313
f 449/580/423 326/430/314 446/747/422
f 326/753/314 330/579/317 446/578/422
f 352/465/346 340/720/446 211/292/201
f 241/467/215 379/466/347 249/736/442
f 423/546/290 418/532/395 289/539/275
f 426/391/286 427/544/404 298/389/284
f 454/748/319 453/754/318 434/554/410
f 446/578/422 328/427/313 454/722/319
